<svg width="223" height="89" viewBox="0 0 223 89" fill="none" xmlns="http://www.w3.org/2000/svg">
<rect x="0.773926" y="0.947266" width="222" height="88" fill="#F9FBFC"/>
<path d="M105.485 39.9915C105.669 40.177 105.888 40.3231 106.13 40.4205C106.373 40.518 106.632 40.5648 106.893 40.5581C107.153 40.5648 107.413 40.5178 107.655 40.4204C107.896 40.3229 108.116 40.177 108.299 39.9915C108.483 39.8062 108.627 39.5862 108.725 39.3445C108.823 39.1026 108.871 38.8438 108.868 38.583C108.874 38.3221 108.827 38.0627 108.729 37.8209C108.631 37.579 108.485 37.3597 108.299 37.1768C108.119 36.9846 107.901 36.8325 107.659 36.7303C107.417 36.628 107.156 36.578 106.893 36.5834C106.63 36.5779 106.368 36.6278 106.126 36.73C105.883 36.8322 105.665 36.9845 105.485 37.1768C105.3 37.3598 105.153 37.5791 105.056 37.821C104.958 38.0629 104.911 38.3222 104.918 38.583C104.914 38.8437 104.962 39.1025 105.06 39.3444C105.157 39.5861 105.302 39.8061 105.485 39.9915Z" fill="#0E0E0E"/>
<path d="M105.137 41.9082C105.103 41.9447 105.077 41.9875 105.06 42.0342C105.044 42.0809 105.036 42.1304 105.039 42.1799V53.5362C105.036 53.5858 105.044 53.6353 105.06 53.682C105.077 53.7287 105.103 53.7715 105.137 53.8079C105.173 53.842 105.216 53.8682 105.262 53.8852C105.309 53.9021 105.359 53.9095 105.408 53.9067H108.371C108.42 53.9095 108.47 53.9021 108.517 53.8852C108.563 53.8682 108.606 53.842 108.642 53.8079C108.676 53.7718 108.703 53.729 108.72 53.6822C108.737 53.6356 108.744 53.5858 108.741 53.5362V42.1799C108.744 42.1303 108.736 42.0806 108.72 42.0339C108.703 41.9873 108.676 41.9444 108.642 41.9082C108.606 41.8746 108.563 41.8486 108.516 41.8319C108.47 41.8151 108.42 41.8079 108.371 41.8106H105.411C105.361 41.8079 105.312 41.8151 105.265 41.8319C105.218 41.8486 105.175 41.8746 105.139 41.9082" fill="#0E0E0E"/>
<path fill-rule="evenodd" clip-rule="evenodd" d="M136.549 45.2586C137.021 44.8922 137.605 44.7002 138.202 44.7151C138.785 44.7003 139.353 44.893 139.807 45.2586C140.252 45.6038 140.531 46.1135 140.646 46.7878H135.659C135.792 46.1143 136.088 45.6046 136.549 45.2586ZM143.757 48.7885C143.873 48.5415 143.93 48.1468 143.93 47.6041C143.94 46.5546 143.694 45.5183 143.214 44.585C142.753 43.6815 142.053 42.9216 141.19 42.3881C140.283 41.8367 139.239 41.5548 138.178 41.5753C137.076 41.5619 135.991 41.8525 135.043 42.4148C134.113 42.9493 133.345 43.7253 132.82 44.6605C132.291 45.629 132.019 46.7175 132.031 47.8212C132.018 48.9277 132.299 50.0178 132.844 50.9808C133.38 51.9297 134.165 52.7147 135.114 53.252C136.133 53.8203 137.283 54.1103 138.45 54.0928C139.285 54.1006 140.114 53.9428 140.888 53.6283C141.654 53.3042 142.351 52.8345 142.938 52.2453C142.981 52.2084 143.016 52.1631 143.042 52.1122C143.067 52.0615 143.082 52.006 143.087 51.9492C143.087 51.9035 143.079 51.858 143.062 51.8155C143.045 51.773 143.019 51.7344 142.987 51.7019L141.711 50.4687C141.643 50.3858 141.545 50.3324 141.439 50.3201C141.339 50.32 141.242 50.3549 141.165 50.4188C140.799 50.661 140.4 50.852 139.981 50.9866C139.603 51.0876 139.212 51.1376 138.82 51.1353C137.998 51.1353 137.315 50.9708 136.772 50.6418C136.241 50.2897 135.862 49.7508 135.71 49.1323H143.042C143.404 49.1323 143.644 49.0161 143.759 48.7839" fill="#0E0E0E"/>
<path fill-rule="evenodd" clip-rule="evenodd" d="M151.031 44.7148C150.433 44.7002 149.85 44.8922 149.378 45.2583C148.913 45.6035 148.617 46.1133 148.49 46.7875H153.475C153.36 46.1141 153.08 45.6043 152.636 45.2583C152.182 44.8927 151.613 44.7001 151.031 44.7148ZM156.759 47.6038C156.759 48.1457 156.701 48.5405 156.586 48.7882C156.47 49.0205 156.232 49.1366 155.871 49.1366H148.539C148.69 49.7552 149.069 50.2942 149.599 50.6462C150.142 50.9744 150.824 51.1388 151.649 51.1396C152.041 51.1421 152.431 51.0921 152.81 50.991C153.229 50.8561 153.628 50.6651 153.995 50.4232C154.072 50.3591 154.168 50.3241 154.267 50.3245C154.374 50.3366 154.472 50.39 154.539 50.4731L155.816 51.7063C155.849 51.7386 155.875 51.7772 155.891 51.8198C155.909 51.8623 155.916 51.9078 155.915 51.9536C155.911 52.0104 155.896 52.066 155.871 52.1168C155.845 52.1677 155.81 52.2129 155.767 52.2497C155.181 52.8367 154.486 53.3048 153.723 53.6281C152.948 53.9424 152.119 54.1003 151.284 54.0925C150.119 54.1098 148.969 53.8203 147.951 53.253C147.002 52.715 146.217 51.9301 145.68 50.9817C145.136 50.0184 144.855 48.9285 144.868 47.8222C144.855 46.7183 145.127 45.63 145.657 44.6615C146.179 43.7289 146.943 42.9544 147.868 42.4192C148.816 41.8568 149.901 41.5663 151.003 41.5797C152.064 41.559 153.109 41.841 154.015 42.3925C154.878 42.9261 155.578 43.6859 156.039 44.5894C156.52 45.5224 156.766 46.5589 156.756 47.6085" fill="#0E0E0E"/>
<path fill-rule="evenodd" clip-rule="evenodd" d="M166.054 49.9239C165.543 50.4511 164.893 50.7143 164.103 50.7135C163.298 50.7135 162.64 50.4503 162.129 49.9239C161.636 49.3967 161.389 48.7136 161.389 47.8744C161.389 47.0523 161.635 46.3614 162.129 45.8017C162.378 45.5271 162.683 45.3097 163.024 45.1648C163.365 45.0198 163.733 44.9507 164.103 44.9622C164.467 44.9513 164.83 45.0181 165.167 45.1582C165.503 45.2984 165.805 45.5087 166.054 45.775C166.579 46.3169 166.843 47.0163 166.844 47.8733C166.844 48.7132 166.58 49.3964 166.054 49.9227V49.9239ZM167.535 42.4181C166.64 41.8568 165.604 41.5653 164.548 41.5786C163.133 41.5786 161.972 42.1545 161.065 43.3064L160.94 42.1963C160.908 41.9494 160.785 41.8259 160.57 41.8259H158.055C158.006 41.8231 157.956 41.8303 157.909 41.8473C157.862 41.8643 157.819 41.8906 157.783 41.9246C157.75 41.9609 157.723 42.0037 157.707 42.0504C157.689 42.0972 157.682 42.1467 157.686 42.1963V58.2425C157.682 58.2923 157.69 58.342 157.707 58.3889C157.723 58.4357 157.75 58.4787 157.783 58.5155C157.819 58.5493 157.862 58.5754 157.909 58.5923C157.956 58.6093 158.006 58.6167 158.055 58.6141H161.017C161.067 58.6168 161.116 58.6095 161.162 58.5926C161.21 58.5757 161.252 58.5494 161.289 58.5155C161.323 58.479 161.349 58.4361 161.366 58.3891C161.383 58.3423 161.39 58.2924 161.387 58.2425V52.8373C162.194 53.6742 163.248 54.0925 164.548 54.0925C165.601 54.107 166.635 53.8253 167.535 53.2797C168.426 52.7354 169.151 51.9586 169.634 51.0329C170.147 50.0678 170.41 48.9901 170.399 47.8977C170.413 46.7892 170.15 45.6949 169.634 44.7137C169.162 43.7675 168.435 42.9723 167.535 42.4181Z" fill="#0E0E0E"/>
<path d="M117.696 41.8106C117.745 41.8079 117.795 41.8152 117.842 41.8319C117.888 41.8486 117.931 41.8746 117.968 41.9083C118.002 41.9445 118.028 41.9873 118.045 42.0339C118.062 42.0807 118.069 42.1303 118.066 42.18V44.4268C118.069 44.4762 118.062 44.5258 118.045 44.5723C118.028 44.6189 118.002 44.6614 117.968 44.6973C117.932 44.7317 117.889 44.7583 117.842 44.7756C117.795 44.7927 117.746 44.8001 117.696 44.7972H115.722V53.5363C115.725 53.5859 115.717 53.6357 115.7 53.6824C115.683 53.7291 115.656 53.7719 115.622 53.8079C115.586 53.842 115.543 53.8683 115.496 53.8852C115.45 53.9021 115.4 53.9095 115.35 53.9067H112.388C112.339 53.9095 112.289 53.9021 112.242 53.8852C112.196 53.8683 112.153 53.842 112.117 53.8079C112.082 53.7718 112.056 53.729 112.039 53.6823C112.022 53.6356 112.015 53.5858 112.018 53.5363V44.8031H110.044C109.994 44.8059 109.944 44.7985 109.898 44.7813C109.851 44.7641 109.808 44.7376 109.772 44.7032C109.738 44.667 109.712 44.6245 109.695 44.578C109.678 44.5314 109.671 44.4821 109.673 44.4326V42.1857C109.671 42.1362 109.678 42.0865 109.695 42.0399C109.712 41.9933 109.738 41.9504 109.772 41.914C109.809 41.8804 109.851 41.8544 109.898 41.8377C109.945 41.8209 109.994 41.8138 110.044 41.8165H112.018V38.4827C112.015 38.4331 112.022 38.3835 112.039 38.3368C112.056 38.2901 112.082 38.2472 112.117 38.211C112.153 38.1772 112.196 38.1511 112.242 38.1343C112.289 38.1176 112.339 38.1104 112.388 38.1135H115.355C115.405 38.1104 115.454 38.1176 115.501 38.1343C115.548 38.1511 115.59 38.1772 115.627 38.211C115.661 38.2472 115.687 38.2899 115.705 38.3366C115.722 38.3834 115.729 38.4331 115.727 38.4827V41.8165L117.696 41.8106Z" fill="#0E0E0E"/>
<path fill-rule="evenodd" clip-rule="evenodd" d="M97.8015 50.5242C98.5586 50.5242 99.1593 50.3516 99.6036 50.0063C100.048 49.6611 100.27 49.1424 100.27 48.4504C100.27 47.7753 100.048 47.2818 99.6036 46.9699C99.1585 46.6401 98.5578 46.4756 97.8015 46.4764H95.0344V50.5242H97.8015ZM99.2333 41.5831C99.2333 40.5303 98.583 40.0035 97.2825 40.0028H95.0344V43.311H97.2801C97.8886 43.311 98.367 43.1716 98.7119 42.8918C99.0579 42.5946 99.2309 42.1583 99.2309 41.5831H99.2333ZM100.711 44.6695C101.637 44.9195 102.464 45.4461 103.081 46.1791C103.755 46.9307 104.117 47.9105 104.094 48.9194C104.094 50.5823 103.559 51.8332 102.489 52.6724C101.436 53.4945 99.8231 53.9059 97.6517 53.9067H91.5799C91.5303 53.9095 91.4807 53.9022 91.4339 53.8852C91.3872 53.8683 91.3445 53.842 91.3082 53.8081C91.2743 53.7717 91.2481 53.729 91.2314 53.6822C91.2146 53.6355 91.2076 53.5858 91.2107 53.5363V36.9965C91.2076 36.947 91.2147 36.8973 91.2315 36.8506C91.2482 36.8039 91.2743 36.7611 91.3082 36.7248C91.3445 36.6908 91.3872 36.6645 91.4339 36.6476C91.4807 36.6306 91.5303 36.6233 91.5799 36.6261H97.6285C98.7122 36.6261 99.6412 36.8235 100.415 37.2183C101.154 37.5657 101.772 38.1241 102.193 38.823C102.609 39.5069 102.824 40.294 102.814 41.0943C102.832 41.8875 102.617 42.6686 102.197 43.3412C101.802 43.9821 101.308 44.4265 100.715 44.6742" fill="#0E0E0E"/>
<path d="M133.386 53.7804C133.387 53.7002 133.361 53.6222 133.312 53.5586L126.439 44.2924L133.072 37.1512C133.14 37.0953 133.184 37.0162 133.196 36.9294C133.196 36.8975 133.187 36.8661 133.169 36.8394C133.152 36.8127 133.126 36.7919 133.097 36.7796C133.066 36.7533 133.031 36.7333 132.993 36.7208C132.954 36.7082 132.914 36.7034 132.874 36.7065H129.522C129.441 36.7061 129.362 36.7236 129.29 36.7577C129.217 36.7918 129.153 36.8418 129.102 36.9038L122.741 43.799V37.078C122.744 37.0284 122.737 36.9786 122.72 36.9319C122.702 36.8852 122.676 36.8424 122.642 36.8063C122.606 36.7721 122.563 36.7456 122.517 36.7284C122.47 36.7113 122.421 36.7038 122.371 36.7065H119.404C119.355 36.7036 119.305 36.711 119.258 36.7282C119.211 36.7453 119.169 36.772 119.133 36.8063C119.098 36.8425 119.072 36.8853 119.055 36.932C119.038 36.9787 119.031 37.0285 119.034 37.078V53.6283C119.031 53.6779 119.038 53.7276 119.055 53.7744C119.072 53.8212 119.098 53.8638 119.133 53.9C119.169 53.9342 119.211 53.9606 119.258 53.9776C119.305 53.9945 119.355 54.0017 119.404 53.9987H122.366C122.416 54.0016 122.465 53.9944 122.512 53.9774C122.558 53.9604 122.601 53.9341 122.637 53.9C122.671 53.864 122.698 53.8212 122.715 53.7745C122.732 53.7278 122.74 53.678 122.737 53.6283V48.2869L124.193 46.7077L129.461 53.7758C129.509 53.8484 129.575 53.9072 129.653 53.9461C129.731 53.9851 129.818 54.0027 129.905 53.9975H133.09C133.287 53.9975 133.386 53.9244 133.386 53.7758" fill="#0E0E0E"/>
<path fill-rule="evenodd" clip-rule="evenodd" d="M83.8036 37.8585V39.548C83.8037 39.7111 83.7608 39.8714 83.6793 40.0126C83.5977 40.1539 83.4804 40.2712 83.3392 40.3527L77.8956 43.4949L82.7574 46.2933C83.0754 46.4768 83.3394 46.7409 83.5228 47.0589C83.7063 47.3769 83.8027 47.7376 83.8025 48.1047V52.6066C83.8029 52.9739 83.7065 53.3349 83.5231 53.6531C83.3396 53.9713 83.0755 54.2355 82.7574 54.4192L69.967 61.7567C69.6493 61.9401 69.2889 62.0367 68.922 62.0367C68.5551 62.0367 68.1947 61.9401 67.8769 61.7567L63.6967 59.3403C63.6261 59.2995 63.5674 59.2408 63.5266 59.1702C63.4858 59.0996 63.4642 59.0195 63.4642 58.938C63.4642 58.8564 63.4858 58.7762 63.5266 58.7056C63.5674 58.635 63.6261 58.5764 63.6967 58.5356L77.5147 50.5827C77.5502 50.5623 77.5796 50.533 77.6001 50.4976C77.6206 50.4623 77.6314 50.4221 77.6314 50.3812C77.6314 50.3403 77.6206 50.3002 77.6001 50.2648C77.5796 50.2294 77.5502 50.2001 77.5147 50.1798L72.3846 47.2164C72.2434 47.1349 72.0832 47.092 71.9202 47.092C71.7571 47.092 71.5969 47.1349 71.4557 47.2164L57.4124 55.3005C57.3065 55.3617 57.1864 55.3939 57.0641 55.3939C56.9418 55.3939 56.8216 55.3617 56.7157 55.3005L55.1272 54.3902C54.8075 54.2072 54.5418 53.943 54.357 53.6243C54.1723 53.3055 54.075 52.9437 54.0752 52.5753V50.7325C54.0751 50.6101 54.1073 50.4899 54.1684 50.3839C54.2296 50.2779 54.3176 50.1899 54.4235 50.1286L74.5514 38.5668C74.5868 38.5465 74.6163 38.5172 74.6368 38.4818C74.6573 38.4464 74.6681 38.4062 74.6681 38.3654C74.6681 38.3245 74.6573 38.2843 74.6368 38.2489C74.6163 38.2136 74.5868 38.1842 74.5514 38.1639L69.4132 35.1913C69.272 35.1097 69.1117 35.0668 68.9487 35.0668C68.7856 35.0668 68.6254 35.1097 68.4843 35.1913L54.7824 43.0757C54.7117 43.1165 54.6315 43.138 54.5499 43.1379C54.4684 43.1379 54.3882 43.1164 54.3176 43.0755C54.247 43.0347 54.1883 42.9759 54.1476 42.9052C54.1069 42.8346 54.0855 42.7543 54.0856 42.6727V37.8365C54.0858 37.4685 54.183 37.1072 54.3676 36.789C54.5521 36.4707 54.8173 36.2068 55.1365 36.0238L67.9199 28.6875C68.2369 28.5052 68.5963 28.4092 68.962 28.4092C69.3278 28.4092 69.6871 28.5052 70.0042 28.6875L82.7633 36.0459C83.0804 36.2301 83.3436 36.4946 83.5262 36.8128C83.7089 37.131 83.8046 37.4916 83.8036 37.8585Z" fill="#7524F9"/>
</svg>
