<?xml version="1.0" standalone="no"?>
<!DOCTYPE svg PUBLIC "-//W3C//DTD SVG 20010904//EN"
 "http://www.w3.org/TR/2001/REC-SVG-20010904/DTD/svg10.dtd">
<svg version="1.0" xmlns="http://www.w3.org/2000/svg"
 width="445.000000pt" height="177.000000pt" viewBox="0 0 445.000000 177.000000"
 preserveAspectRatio="xMidYMid meet">

<g transform="translate(0.000000,177.000000) scale(0.100000,-0.100000)"
fill="#000000" stroke="none">
<path d="M2602 1145 c-10 -22 -18 -25 -62 -25 -46 0 -50 -2 -50 -25 0 -27 18
-33 115 -37 l50 -3 -83 -60 c-63 -45 -82 -64 -80 -80 3 -18 12 -21 83 -25 l80
-5 -83 -59 c-65 -46 -82 -63 -80 -80 5 -37 38 -23 166 68 158 114 161 132 19
138 l-58 3 80 60 c58 43 80 66 81 83 0 20 -4 22 -60 22 -52 0 -60 2 -60 19 0
17 -18 31 -39 31 -4 0 -13 -11 -19 -25z"/>
<path d="M2950 1151 c-6 -12 -10 -108 -10 -241 l0 -221 -25 -24 c-14 -15 -36
-25 -53 -25 -38 0 -60 -24 -42 -45 31 -37 130 -3 165 56 17 30 20 56 23 204 2
94 1 203 -3 243 -6 61 -9 72 -26 72 -10 0 -23 -9 -29 -19z"/>
<path d="M1903 1145 c-23 -16 -23 -18 -23 -274 0 -237 1 -259 18 -274 27 -24
53 -21 91 13 18 17 37 30 40 30 4 0 20 -14 36 -30 33 -35 68 -37 73 -4 4 25
-78 104 -107 104 -11 0 -33 -11 -49 -25 -17 -14 -33 -25 -36 -25 -3 0 -6 23
-6 50 l0 50 66 0 c59 0 68 3 95 29 l29 29 0 149 c0 190 2 187 -117 191 -69 3
-93 0 -110 -13z m167 -105 l0 -50 -65 0 -65 0 0 50 0 50 65 0 65 0 0 -50z m0
-160 l0 -50 -65 0 -65 0 0 50 0 50 65 0 65 0 0 -50z"/>
<path d="M2210 1153 c-8 -3 -18 -11 -22 -17 -4 -6 -8 -132 -8 -279 0 -230 2
-268 15 -273 8 -4 22 -1 30 6 13 10 15 53 15 256 l0 244 60 0 60 0 0 -192 c0
-106 -4 -199 -9 -206 -4 -7 -21 -16 -37 -21 -22 -6 -29 -13 -29 -32 0 -20 6
-25 33 -27 26 -3 39 3 67 31 l35 35 0 225 c0 268 5 258 -120 256 -41 0 -82 -3
-90 -6z"/>
<path d="M2834 1107 c-2 -7 -3 -98 -2 -202 l3 -190 25 0 25 0 3 180 c1 99 0
190 -3 203 -6 24 -42 31 -51 9z"/>
<path d="M3145 1015 c-28 -76 -28 -107 1 -67 20 28 64 30 71 2 3 -11 12 -20
20 -20 16 0 15 5 -20 95 -12 32 -28 60 -34 62 -6 2 -23 -30 -38 -72z m54 -17
c1 -5 -6 -8 -14 -8 -16 0 -19 9 -8 36 6 16 7 16 14 -2 4 -10 8 -22 8 -26z"/>
<path d="M3270 1010 c0 -47 4 -80 10 -80 6 0 10 11 10 24 0 20 6 25 32 28 23
2 37 11 47 29 13 24 13 29 -2 53 -14 21 -25 26 -57 26 l-40 0 0 -80z m74 38
c13 -22 -14 -54 -38 -45 -16 6 -22 48 -9 61 11 11 35 3 47 -16z"/>
<path d="M3397 1083 c-4 -3 -7 -39 -7 -80 0 -58 3 -73 15 -73 9 0 15 9 15 25
0 20 5 25 23 25 49 0 74 61 39 93 -18 17 -73 23 -85 10z m67 -29 c9 -8 16 -17
16 -19 0 -10 -33 -35 -46 -35 -9 0 -14 11 -14 35 0 39 17 46 44 19z"/>
<path d="M2697 772 c-167 -115 -207 -147 -205 -167 5 -33 33 -28 99 19 l64 45
47 -46 c40 -39 49 -44 63 -33 22 19 19 30 -22 73 l-38 38 38 31 c38 31 48 62
23 71 -8 3 -39 -11 -69 -31z"/>
</g>
</svg>
