<svg width="223" height="89" viewBox="0 0 223 89" fill="none" xmlns="http://www.w3.org/2000/svg">
<rect x="0.472656" y="0.681152" width="222" height="88" fill="#F9FBFC"/>
<g clip-path="url(#clip0_2495_15035)">
<path d="M76.6621 58.6811H60.0523C56.9819 58.6811 54.4727 56.1484 54.4727 53.0551V36.3066C54.4727 33.2113 56.9819 30.6812 60.0523 30.6812H76.6621C79.7294 30.6812 82.2418 33.2113 82.2418 36.3072V53.0557C82.2418 56.1484 79.73 58.6818 76.6621 58.6818V58.6811Z" fill="#5A66F9"/>
<path d="M71.6247 39.9121C71.4315 39.9796 71.5043 40.21 71.707 40.2068L72.7571 40.1839L70.6569 45.8615L68.6746 42.1865C68.0273 40.987 66.8601 40.2386 65.5434 40.1425H64.9538C64.2013 40.1945 63.4805 40.4666 62.8801 40.9253C62.2797 41.3839 61.826 42.009 61.5749 42.7236L58.3399 51.683C58.3346 51.6969 58.3329 51.7119 58.3347 51.7266C58.3365 51.7414 58.3418 51.7555 58.3502 51.7678C58.3586 51.78 58.3698 51.79 58.3829 51.797C58.396 51.8039 58.4105 51.8076 58.4254 51.8077H63.2691C63.3071 51.8077 63.3419 51.7822 63.3546 51.7466L65.3882 46.1046L67.3611 49.7637C68.1002 51.1357 69.5214 51.9229 71.0635 51.8109C72.6082 51.7021 73.9053 50.7265 74.4512 49.2616L77.8231 40.1425L78.7085 37.6543C78.7142 37.6378 78.7152 37.62 78.7113 37.603C78.7075 37.5859 78.6989 37.5703 78.6866 37.558C78.6743 37.5456 78.6588 37.537 78.6418 37.5331C78.6248 37.5292 78.6071 37.5302 78.5907 37.536L71.6247 39.9121Z" fill="white"/>
<path opacity="0.3" d="M61.5719 42.7213L58.3394 51.6825C58.3342 51.6965 58.3324 51.7115 58.3342 51.7262C58.336 51.741 58.3413 51.7551 58.3497 51.7673C58.3581 51.7796 58.3693 51.7896 58.3824 51.7966C58.3955 51.8035 58.4101 51.8072 58.4249 51.8073H63.2692C63.3072 51.8073 63.3421 51.7818 63.3547 51.7462L65.3877 46.1042L67.3612 49.7633C68.0085 50.9628 69.1725 51.7144 70.4892 51.8105H71.0662L64.9533 40.1421C63.3991 40.2573 62.1052 41.2455 61.5719 42.72V42.7213Z" fill="#3B53FF"/>
<path d="M63.1005 45.6247L60.8516 51.686C60.8464 51.7 60.8446 51.715 60.8464 51.7297C60.8482 51.7445 60.8535 51.7586 60.8619 51.7708C60.8703 51.7831 60.8815 51.7931 60.8946 51.8001C60.9077 51.807 60.9223 51.8107 60.9371 51.8108H63.2722C63.3102 51.8108 63.345 51.7853 63.3577 51.7497L65.3907 46.1077L64.9815 45.465C64.5597 44.7968 63.3919 44.889 63.1005 45.6247V45.6247Z" fill="white"/>
<path opacity="0.3" d="M72.9496 46.3543L75.1928 40.4367C75.2036 40.4087 75.2074 40.3785 75.204 40.3486C75.2006 40.3188 75.19 40.2902 75.1732 40.2654C75.1564 40.2406 75.1338 40.2202 75.1075 40.206C75.0811 40.1919 75.0517 40.1843 75.0218 40.1841H72.7564L70.6562 45.8744L71.0654 46.5172C71.4903 47.1828 72.6582 47.0899 72.9496 46.3543V46.3543Z" fill="#3B53FF"/>
<path d="M100.151 47.3053L92.0972 39.4545C91.4664 38.8385 90.4734 38.6247 89.5734 38.9123C88.6734 39.2006 88.0889 39.9127 88.0889 40.7304V50.5724H90.9591V42.056L99.0132 49.9068C99.4591 50.3401 100.084 50.5756 100.727 50.5756C100.996 50.5756 101.272 50.5355 101.538 50.4483C102.437 50.1607 103.022 49.4486 103.022 48.6309V38.9187H100.152V47.3053H100.151ZM104.988 41.8733V50.3281H107.859V41.8733C107.859 41.5265 108.205 41.2319 108.613 41.2319H118.276V38.7946H108.613C106.615 38.7946 104.988 40.1761 104.988 41.8733Z" fill="#151D51"/>
<path d="M118.276 43.4531H108.979V45.8904H118.276V43.4531V43.4531ZM120.711 41.2322H126.417V50.3322H129.288V41.2322H134.995V38.7949H120.711V41.2322ZM139.487 45.8471V43.4436C139.487 42.2268 140.653 41.2354 142.085 41.2354H150.551V38.7981H142.085C139.07 38.7981 136.617 40.8828 136.617 43.4436V45.8471C136.617 48.4078 139.07 50.4926 142.085 50.4926H147.356V48.0553H142.085C140.653 48.0521 139.487 47.0638 139.487 45.8471Z" fill="#151D51"/>
<path d="M147.722 43.4248H142.384V45.8621H147.722C148.127 45.8621 148.468 46.0784 148.468 46.3355V50.3306H151.338V46.3362C151.338 44.7287 149.717 43.4248 147.722 43.4248Z" fill="#5A66F9"/>
<path d="M162.601 38.9004H159.038C155.8 38.9004 153.168 41.1398 153.168 43.8895V45.5033C153.168 48.253 155.8 50.4924 159.038 50.4924H162.601C165.84 50.4924 168.472 48.253 168.472 45.5033V43.8895C168.472 41.1366 165.84 38.9004 162.601 38.9004ZM165.605 45.5033C165.605 46.909 164.26 48.0551 162.605 48.0551H159.041C157.387 48.0551 156.041 46.9122 156.041 45.5033V43.8895C156.041 42.4831 157.387 41.3377 159.041 41.3377H162.605C164.26 41.3377 165.605 42.4806 165.605 43.8895V45.5033Z" fill="#151D51"/>
</g>
<defs>
<clipPath id="clip0_2495_15035">
<rect width="114" height="28" fill="white" transform="translate(54.4727 30.6812)"/>
</clipPath>
</defs>
</svg>
