<svg width="223" height="89" viewBox="0 0 223 89" fill="none" xmlns="http://www.w3.org/2000/svg">
<rect x="0.699219" y="0.874023" width="222" height="88" fill="#F9FBFC"/>
<path d="M73.4758 24.0044C83.643 24.0044 91.8852 32.1554 91.8852 42.2103C91.8852 52.1645 83.807 60.2529 73.7803 60.4137L73.4758 60.4161H60.8105V35.013H68.0774V53.2296H73.4758C79.5681 53.2296 84.5184 48.3943 84.6168 42.3925L84.6183 42.2103C84.6183 36.1853 79.7289 31.2897 73.6601 31.1924L73.4758 31.1909H68.0774V24.0044H73.4758Z" fill="#2466FF"/>
<path fill-rule="evenodd" clip-rule="evenodd" d="M90.6474 51.9652L94.0656 54.6056C95.6275 55.812 95.9157 58.0561 94.7093 59.6181C94.7012 59.6285 94.6931 59.639 94.6849 59.6494C93.4435 61.2201 91.1692 61.4994 89.5848 60.2756L85.9937 57.5019C87.9218 55.9997 89.509 54.1087 90.6474 51.9652Z" fill="#2466FF"/>
<path opacity="0.9" fill-rule="evenodd" clip-rule="evenodd" d="M58.4243 24.0044H64.1787V29.7153H58.4243V24.0044ZM53.0215 29.5813H58.4243V34.9432H53.0215V29.5813ZM48.6992 25.2917H53.0215V29.5813H48.6992V25.2917ZM49.7798 34.5143H53.0215V37.7314H49.7798V34.5143Z" fill="url(#paint0_linear_2495_15113)"/>
<path d="M120.304 45.7161C120.304 43.1978 120.426 39.7318 118.689 37.9446C117.714 36.9427 116.373 36.0762 113.936 36.0762H106.795V55.3561H113.936C116.373 55.3561 117.714 54.4896 118.689 53.4877C120.426 51.7005 120.304 48.2344 120.304 45.7161ZM115.977 45.6891C115.977 47.8283 115.977 50.157 115.459 51.0506C115.185 51.538 114.636 51.89 113.844 51.89H111.122V39.5422H113.844C114.636 39.5422 115.185 39.8942 115.459 40.3817C115.977 41.2753 115.977 43.5499 115.977 45.6891ZM128.552 55.3561V51.771C127.181 51.771 126.541 51.1735 126.541 49.9187V44.9194H128.552V41.902H126.541V37.5102H122.458V41.902H120.934V44.9194H122.458V50.1876C122.458 52.2789 123.189 53.5635 124.347 54.3702C125.535 55.2067 126.876 55.3561 128.552 55.3561ZM163.209 55.3561V51.771C161.838 51.771 161.198 51.1735 161.198 49.9187V36.0762H157.115V50.1876C157.115 52.2789 157.846 53.5635 159.004 54.3702C160.192 55.2067 161.533 55.3561 163.209 55.3561ZM174.699 51.2518C174.699 50.1813 174.389 49.4052 173.956 48.8967C173.399 48.2277 172.656 47.7727 171.448 47.3713L169.157 46.622C168.661 46.4614 168.321 46.2473 168.104 45.9797C167.949 45.7923 167.887 45.605 167.887 45.3374C167.887 44.9895 168.011 44.7219 168.228 44.5345C168.445 44.3472 168.785 44.2134 169.188 44.2134C169.528 44.2134 169.869 44.3472 170.117 44.5613C170.333 44.7754 170.457 45.0965 170.457 45.4712H174.513C174.513 43.9993 173.863 42.9823 172.965 42.233C172.036 41.4837 170.643 41.0555 169.188 41.0555C167.702 41.0555 166.215 41.4837 165.255 42.3668C164.327 43.1964 163.738 44.1331 163.738 45.6853C163.738 46.5149 163.924 47.1572 164.296 47.6924C164.822 48.415 165.689 48.9502 166.865 49.3517L169.188 50.1278C169.683 50.2883 170.055 50.4757 170.271 50.7433C170.488 51.0109 170.55 51.2518 170.55 51.5461C170.55 51.8405 170.426 52.1884 170.209 52.349C169.9 52.5899 169.652 52.6434 169.219 52.6434C168.847 52.6434 168.445 52.5096 168.197 52.2687C167.949 52.0546 167.794 51.7335 167.763 51.332H163.676C163.707 52.7772 164.296 53.7406 165.255 54.6238C166.184 55.4534 167.732 55.8816 169.219 55.8816C170.705 55.8816 172.036 55.6139 173.12 54.6773C174.018 53.9012 174.699 52.8307 174.699 51.2518ZM147.635 41.414C151.642 41.414 154.89 44.5351 154.89 48.3851C154.89 49.436 154.648 50.4325 154.215 51.3262L155.988 52.957C156.676 53.6081 156.695 54.6825 156.031 55.3568C155.366 56.031 154.271 56.0498 153.583 55.3987L151.913 54.0161C150.713 54.8587 149.235 55.3561 147.635 55.3561C145.698 55.3561 143.939 54.6271 142.638 53.4391L142.646 53.445L142.834 53.2413C143.107 52.9346 143.353 52.6068 143.57 52.2611L143.65 52.1307L143.808 51.8529L143.908 51.6594C143.951 51.5737 143.992 51.488 144.031 51.4018L144.088 51.2722L144.22 50.9415L144.289 50.745C144.319 50.6581 144.346 50.5718 144.372 50.4853L144.408 50.3554L144.439 50.2404L144.473 50.0951C145.095 51.1549 146.278 51.8706 147.635 51.8706C149.638 51.8706 151.263 50.3101 151.263 48.3851C151.263 46.4601 149.638 44.8995 147.635 44.8995C145.631 44.8995 144.007 46.4601 144.007 48.3851C144.007 48.5526 144.02 48.7175 144.043 48.8787C143.914 50.4879 143.217 51.94 142.148 53.0551L142.198 53.0014C142.197 52.9996 142.195 52.9978 142.193 52.9959C140.864 54.4432 138.919 55.3561 136.752 55.3561C132.745 55.3561 129.497 52.2351 129.497 48.3851C129.497 44.5351 132.745 41.414 136.752 41.414C138.733 41.414 140.529 42.1769 141.838 43.4136L141.732 43.3189L141.523 43.5501L141.367 43.7377L141.248 43.8887L141.06 44.1456L140.932 44.3341L140.814 44.5214L140.675 44.7591L140.539 45.0133L140.478 45.1359L140.362 45.3884L140.283 45.5747L140.204 45.7801L140.122 46.0154L140.045 46.2641L139.988 46.4744L139.933 46.7087C139.316 45.6304 138.123 44.8995 136.752 44.8995C134.748 44.8995 133.124 46.4601 133.124 48.3851C133.124 50.3101 134.748 51.8706 136.752 51.8706C138.716 51.8706 140.316 50.3703 140.378 48.4973L140.388 48.4994L140.386 48.3488C140.386 46.5808 141.071 44.9666 142.2 43.7377L142.18 43.7596C142.185 43.7645 142.189 43.7693 142.194 43.7742C143.523 42.3269 145.468 41.414 147.635 41.414Z" fill="#2466FF"/>
<defs>
<linearGradient id="paint0_linear_2495_15113" x1="48.6992" y1="34.3021" x2="63.3137" y2="25.6033" gradientUnits="userSpaceOnUse">
<stop stop-color="#2466FF"/>
<stop offset="1" stop-color="#4AFFE2"/>
</linearGradient>
</defs>
</svg>
