<svg width="223" height="89" viewBox="0 0 223 89" fill="none" xmlns="http://www.w3.org/2000/svg">
<rect x="0.925293" y="0.875977" width="222" height="88" fill="#F9FBFC"/>
<path fill-rule="evenodd" clip-rule="evenodd" d="M99.3849 28.1659C99.3849 23.4007 95.5042 19.52 90.7389 19.52C86.9829 19.52 83.7765 21.931 82.5868 25.2857C79.8173 25.4843 77.0638 25.9964 74.4743 26.8248C71.3355 27.7379 69.5378 28.8222 67.0839 30.7625C66.0566 30.7625 62.4328 30.9908 61.9191 31.3618C61.4135 31.746 61.8683 34.0941 62.1761 35.6832C62.3026 36.3361 62.4042 36.8609 62.4042 37.0687C61.805 39.0375 61.0631 42.2904 60.2071 46.7989C59.8656 46.7639 59.4973 46.6832 59.1425 46.6054C58.341 46.4299 57.6085 46.2694 57.4107 46.6847C57.0968 47.9403 57.0968 52.2204 57.4107 55.1309C57.4963 55.8158 57.7816 56.1582 60.0073 56.7003C60.0929 56.7289 60.1785 56.7574 60.2641 56.7574C60.2356 56.8145 60.2071 56.9001 60.2071 56.9857C60.1785 57.3566 60.8634 58.127 61.5767 58.6407C63.1176 59.725 64.0878 60.153 65.6001 60.3242C63.8595 59.8106 62.4613 58.6407 61.4341 56.8145C62.233 56.7859 63.1746 56.3294 64.2875 55.4448C62.3186 55.9014 61.006 55.9014 60.3497 55.4448C59.294 54.7314 58.7804 53.4474 58.7233 51.7639C58.6662 50.6225 58.6662 49.6809 59.0086 48.568C59.2303 48.1929 59.6557 48.2457 60.1935 48.3124C60.5558 48.3574 60.9691 48.4086 61.4055 48.3397C62.2045 48.1971 62.604 47.7691 62.604 47.0557C63.3173 42.4331 63.9451 39.3799 64.4872 37.9247C64.671 37.4158 64.4416 36.5219 64.2327 35.7076C64.0199 34.8781 63.8283 34.1312 64.1163 33.9584C64.3446 33.8157 64.8582 33.8443 65.3718 33.9013L65.543 33.9299C66.1708 34.0155 66.8271 34.0725 67.0553 33.8157C69.9088 30.4487 74.1319 28.3086 79.7246 27.3384C80.5539 27.2416 81.3654 27.1606 82.159 27.0955C82.1154 27.4463 82.093 27.8036 82.093 28.1659C82.093 29.0695 82.2303 29.9387 82.4833 30.7518C81.0482 31.292 79.7774 32.0755 78.6688 33.1024C80.4094 32.5602 82.2071 32.1893 84.0618 31.9895C85.053 31.8794 86.0528 31.8213 87.066 31.8201C87.8813 31.8199 88.7053 31.8566 89.5405 31.9325C91.4238 32.1037 93.2214 32.4461 94.962 32.9312C95.1627 32.9865 95.3617 33.0436 95.559 33.1027C97.1267 33.5937 98.6465 34.2186 100.098 34.9571C99.4943 34.152 98.8001 33.4435 98.0157 32.8304C98.694 31.7676 99.1526 30.5501 99.3172 29.2446C102.501 30.757 104.873 33.0017 106.433 35.9843C105.834 34.5862 104.978 33.0453 103.094 31.0479C102.011 30.0462 100.76 29.1721 99.3809 28.4263C99.3835 28.3398 99.3849 28.253 99.3849 28.1659ZM67.7972 43.0323C67.8258 41.6056 67.4263 40.6355 66.6558 40.6355C65.8854 40.6069 65.3433 42.5473 65.4859 44.2879C65.6286 46.0285 66.7129 46.1141 67.1124 45.7146C67.5404 45.3151 67.7687 44.4591 67.7972 43.0323Z" fill="white"/>
<path fill-rule="evenodd" clip-rule="evenodd" d="M99.3849 28.1659C99.3849 23.4007 95.5042 19.52 90.7389 19.52C86.9829 19.52 83.7765 21.931 82.5868 25.2857C79.8173 25.4843 77.0638 25.9964 74.4743 26.8248C71.3355 27.7379 69.5378 28.8222 67.0839 30.7625C66.0566 30.7625 62.4328 30.9908 61.9191 31.3618C61.4135 31.746 61.8683 34.0941 62.1761 35.6832C62.3026 36.3361 62.4042 36.8609 62.4042 37.0687C61.805 39.0375 61.0631 42.2904 60.2071 46.7989C59.8656 46.7639 59.4973 46.6832 59.1425 46.6054C58.341 46.4299 57.6085 46.2694 57.4107 46.6847C57.0968 47.9403 57.0968 52.2204 57.4107 55.1309C57.4963 55.8158 57.7816 56.1582 60.0073 56.7003C60.0929 56.7289 60.1785 56.7574 60.2641 56.7574C60.2356 56.8145 60.2071 56.9001 60.2071 56.9857C60.1785 57.3566 60.8634 58.127 61.5767 58.6407C63.1176 59.725 64.0878 60.153 65.6001 60.3242C63.8595 59.8106 62.4613 58.6407 61.4341 56.8145C62.233 56.7859 63.1746 56.3294 64.2875 55.4448C62.3186 55.9014 61.006 55.9014 60.3497 55.4448C59.294 54.7314 58.7804 53.4474 58.7233 51.7639C58.6662 50.6225 58.6662 49.6809 59.0086 48.568C59.2303 48.1929 59.6557 48.2457 60.1935 48.3124C60.5558 48.3574 60.9691 48.4086 61.4055 48.3397C62.2045 48.1971 62.604 47.7691 62.604 47.0557C63.3173 42.4331 63.9451 39.3799 64.4872 37.9247C64.671 37.4158 64.4416 36.5219 64.2327 35.7076C64.0199 34.8781 63.8283 34.1312 64.1163 33.9584C64.3446 33.8157 64.8582 33.8443 65.3718 33.9013L65.543 33.9299C66.1708 34.0155 66.8271 34.0725 67.0553 33.8157C69.9088 30.4487 74.1319 28.3086 79.7246 27.3384C80.5539 27.2416 81.3654 27.1606 82.159 27.0955C82.1154 27.4463 82.093 27.8036 82.093 28.1659C82.093 29.0695 82.2303 29.9387 82.4833 30.7518C81.0482 31.292 79.7774 32.0755 78.6688 33.1024C80.4094 32.5602 82.2071 32.1893 84.0618 31.9895C85.053 31.8794 86.0528 31.8213 87.066 31.8201C87.8813 31.8199 88.7053 31.8566 89.5405 31.9325C91.4238 32.1037 93.2214 32.4461 94.962 32.9312C95.1627 32.9865 95.3617 33.0436 95.559 33.1027C97.1267 33.5937 98.6465 34.2186 100.098 34.9571C99.4943 34.152 98.8001 33.4435 98.0157 32.8304C98.694 31.7676 99.1526 30.5501 99.3172 29.2446C102.501 30.757 104.873 33.0017 106.433 35.9843C105.834 34.5862 104.978 33.0453 103.094 31.0479C102.011 30.0462 100.76 29.1721 99.3809 28.4263C99.3835 28.3398 99.3849 28.253 99.3849 28.1659ZM67.7972 43.0323C67.8258 41.6056 67.4263 40.6355 66.6558 40.6355C65.8854 40.6069 65.3433 42.5473 65.4859 44.2879C65.6286 46.0285 66.7129 46.1141 67.1124 45.7146C67.5404 45.3151 67.7687 44.4591 67.7972 43.0323Z" fill="#FF4596"/>
<path fill-rule="evenodd" clip-rule="evenodd" d="M91.0855 20.6465C95.0518 20.6465 98.2761 23.8709 98.2761 27.8086C98.2761 29.6919 97.5628 31.3754 96.3929 32.6595C95.9363 32.4883 95.4798 32.3456 94.9947 32.2314C93.2541 31.7464 91.4564 31.404 89.5732 31.2327C87.9467 31.0901 86.3488 31.0901 84.7794 31.2042C84.2372 30.2055 83.9233 29.0356 83.9233 27.8086C83.9233 23.8709 87.1477 20.6465 91.0855 20.6465Z" fill="#FD5295"/>
<path fill-rule="evenodd" clip-rule="evenodd" d="M91.0855 20.6465C95.0518 20.6465 98.2761 23.8709 98.2761 27.8086C98.2761 29.6919 97.5628 31.3754 96.3929 32.6595C95.9363 32.4883 95.4798 32.3456 94.9947 32.2314C93.2541 31.7464 91.4564 31.404 89.5732 31.2327C87.9467 31.0901 86.3488 31.0901 84.7794 31.2042C84.2372 30.2055 83.9233 29.0356 83.9233 27.8086C83.9233 23.8709 87.1477 20.6465 91.0855 20.6465Z" fill="white"/>
<path fill-rule="evenodd" clip-rule="evenodd" d="M94.4278 21.4702C96.7145 22.6732 98.2763 25.0682 98.2763 27.8088C98.2763 29.692 97.5629 31.3756 96.393 32.6596C95.9365 32.4884 95.4799 32.3457 94.9948 32.2316C93.2543 31.7465 91.4566 31.4041 89.5733 31.2329C88.5355 31.1419 87.5093 31.1089 86.4947 31.1266C86.1794 30.3194 86.0063 29.4409 86.0063 28.522C86.0063 24.5665 89.2129 21.3599 93.1685 21.3599C93.5981 21.3599 94.019 21.3977 94.4278 21.4702Z" fill="#FFBBA0"/>
<path d="M101.136 47.016C104.189 47.016 106.671 49.3844 106.843 52.3805V53.8072H96.8555C97.0267 56.0044 98.8814 57.745 101.136 57.745C102.848 57.745 104.332 56.7462 105.016 55.291L106.243 56.0329C105.302 57.9162 103.361 59.2002 101.136 59.2002C97.9969 59.2002 95.4573 56.6892 95.4288 53.5789V53.4933V52.78C95.4288 49.5841 97.9969 47.016 101.136 47.016ZM77.0526 43.4492L80.7621 57.4596L84.4716 43.4492H86.3263L90.0358 57.4596L93.7453 43.4492H95.2576L91.0916 59.1717H89.0371L85.4132 45.5037L81.7893 59.1717H79.7349L75.5688 43.4492H77.0526ZM101.136 48.4427C98.8814 48.4427 97.0552 50.1833 96.8555 52.3805H105.416C105.245 50.2119 103.447 48.4998 101.221 48.4427H101.136Z" fill="#333333"/>
<path d="M160.544 47.0158L163.569 55.3479L166.622 47.0158H169.675L164.425 61.3116C163.826 62.5385 163.112 63.3375 162.342 63.737C161.629 64.0223 160.887 64.165 160.145 64.165C159.118 64.165 158.09 63.8797 157.092 63.3375L156.921 63.2519L158.347 60.7694C158.975 61.1404 159.574 61.3116 160.145 61.3116C160.972 61.3972 161.515 61.0833 161.743 60.3414L162.057 59.5139L157.491 47.0158H160.544V47.0158ZM141.54 47.0158V58.2869C141.54 61.5398 138.887 64.1935 135.634 64.1935C133.922 64.1935 132.238 63.6799 130.583 62.6527L130.441 62.5956C131.097 61.4828 131.582 60.6553 131.896 60.1131C131.896 60.1131 131.924 60.1131 131.953 60.1417C133.208 60.9406 134.435 61.3401 135.662 61.3401C135.748 61.3401 135.862 61.3401 135.948 61.3401C137.46 61.1974 138.658 59.9419 138.687 58.4011V58.3155V57.8304C137.945 58.2584 137.089 58.4867 136.176 58.4867C133.18 58.4867 130.812 55.89 130.812 52.7798C130.812 49.6695 133.18 47.0729 136.176 47.0729C137.089 47.0729 137.945 47.3012 138.687 47.7292V47.0729H141.54V47.0158ZM155.522 47.0158V58.2869C155.522 61.5398 152.869 64.1935 149.616 64.1935C147.904 64.1935 146.22 63.6799 144.565 62.6527L144.422 62.5956C145.079 61.4828 145.564 60.6553 145.878 60.1131C145.878 60.1131 145.906 60.1131 145.935 60.1417C147.19 60.9406 148.417 61.3401 149.644 61.3401C149.73 61.3401 149.844 61.3401 149.93 61.3401C151.442 61.1974 152.64 59.9419 152.669 58.4011V58.3155V57.8304C151.927 58.2584 151.071 58.4867 150.158 58.4867C147.162 58.4867 144.793 55.89 144.793 52.7798C144.793 49.6695 147.162 47.0729 150.158 47.0729C151.071 47.0729 151.927 47.3012 152.669 47.7292V47.0729H155.522V47.0158ZM128.329 47.0158V59.1715H125.476V47.0158H128.329ZM117.229 43.449C120.197 43.449 122.594 45.8459 122.594 48.8135C122.594 51.724 120.254 54.1209 117.343 54.178H117.229H112.578V59.1715H109.725V43.449H117.229ZM136.176 49.8693C134.835 49.8693 133.665 51.1248 133.665 52.7227C133.665 54.3206 134.806 55.5762 136.176 55.5762C137.546 55.5762 138.687 54.3206 138.687 52.7227C138.687 51.1248 137.546 49.8693 136.176 49.8693ZM150.158 49.8693C148.817 49.8693 147.647 51.1248 147.647 52.7227C147.647 54.3206 148.788 55.5762 150.158 55.5762C151.499 55.5762 152.669 54.3206 152.669 52.7227C152.669 51.1248 151.499 49.8693 150.158 49.8693ZM117.229 46.3025H115.089C113.719 46.3025 112.578 47.4153 112.578 48.8135C112.578 50.2117 113.691 51.3245 115.089 51.3245H117.229C118.599 51.3245 119.74 50.2117 119.74 48.8135C119.74 47.4724 118.656 46.3595 117.315 46.3025H117.229ZM126.874 41.6514C127.872 41.6514 128.671 42.4503 128.671 43.449C128.671 44.4477 127.872 45.2467 126.874 45.2467C125.875 45.2467 125.076 44.4477 125.076 43.449C125.076 42.4503 125.904 41.6514 126.874 41.6514Z" fill="url(#paint0_linear_2495_14920)"/>
<defs>
<linearGradient id="paint0_linear_2495_14920" x1="109.731" y1="52.9216" x2="169.682" y2="52.9216" gradientUnits="userSpaceOnUse">
<stop stop-color="#F08E8E"/>
<stop offset="1" stop-color="#FF4596"/>
</linearGradient>
</defs>
</svg>
