<?xml version="1.0" standalone="no"?>
<!DOCTYPE svg PUBLIC "-//W3C//DTD SVG 20010904//EN"
 "http://www.w3.org/TR/2001/REC-SVG-20010904/DTD/svg10.dtd">
<svg version="1.0" xmlns="http://www.w3.org/2000/svg"
 width="445.000000pt" height="177.000000pt" viewBox="0 0 445.000000 177.000000"
 preserveAspectRatio="xMidYMid meet">

<g transform="translate(0.000000,177.000000) scale(0.100000,-0.100000)"
fill="#000000" stroke="none">
<path d="M921 1062 c-20 -19 -31 -43 -36 -75 -9 -56 1 -77 22 -48 20 30 37 26
17 -4 -9 -14 -22 -25 -29 -25 -22 0 -49 -79 -48 -138 4 -148 121 -243 263
-213 82 17 145 37 140 44 -6 7 39 42 55 42 6 0 21 21 33 47 28 56 31 128 8
179 l-15 34 4 -40 5 -40 -15 40 c-11 27 -12 41 -5 43 7 3 5 14 -7 30 -9 15
-20 45 -23 66 -7 51 -42 79 -87 70 -18 -3 -31 -11 -30 -17 3 -16 -144 -19
-162 -3 -9 7 -26 19 -39 25 -20 11 -26 8 -51 -17z m329 -37 c7 -14 11 -28 8
-31 -7 -6 -46 13 -65 32 -11 10 -9 13 9 17 13 2 26 5 29 6 3 0 12 -10 19 -24z
m-276 7 c5 -9 -25 -40 -54 -57 -12 -6 -13 -5 -2 6 6 7 12 23 12 36 0 16 6 23
19 23 11 0 22 -4 25 -8z m133 -87 c13 -26 23 -35 38 -33 16 2 20 9 17 36 -2
28 1 32 23 32 45 0 61 -69 25 -108 -35 -38 -110 -21 -110 24 0 12 -5 11 -26
-5 -49 -39 -108 -17 -101 37 5 34 34 42 39 10 4 -34 43 -32 43 2 0 24 11 40
28 40 4 0 15 -16 24 -35z m57 -125 c19 0 22 -60 4 -78 -32 -32 -138 5 -138 48
0 11 14 34 31 53 l31 34 28 -29 c16 -15 36 -28 44 -28z m-281 18 c-10 -56 -24
-77 -17 -28 4 25 8 48 11 53 9 16 12 5 6 -25z m379 -23 c4 -20 3 -23 -8 -14
-15 12 -20 54 -5 45 5 -3 11 -17 13 -31z m-242 5 c0 -5 -4 -10 -10 -10 -5 0
-10 5 -10 10 0 6 5 10 10 10 6 0 10 -4 10 -10z m-50 -14 c0 -8 -4 -18 -10 -21
-5 -3 -10 3 -10 14 0 12 5 21 10 21 6 0 10 -6 10 -14z m355 -126 c-9 -18 -19
-29 -22 -27 -3 3 2 16 11 29 9 12 17 32 17 43 1 16 2 16 6 3 2 -9 -3 -31 -12
-48z m-396 -53 c14 -16 19 -26 11 -22 -17 6 -56 60 -65 90 -3 11 1 7 11 -10 9
-16 28 -43 43 -58z"/>
<path d="M1080 800 c0 -5 6 -10 14 -10 8 0 18 5 21 10 3 6 -3 10 -14 10 -12 0
-21 -4 -21 -10z"/>
<path d="M2159 1005 c-21 -44 -24 -65 -24 -175 0 -124 0 -125 24 -128 31 -5
41 12 41 71 l0 47 37 -20 c45 -24 57 -25 73 -5 17 21 -1 41 -45 49 -19 4 -35
10 -35 14 0 4 14 27 31 52 26 38 28 46 14 48 -9 2 -27 -5 -38 -16 -45 -40 -50
-38 -43 9 3 24 2 58 -3 74 l-9 30 -23 -50z"/>
<path d="M2586 1021 c-8 -13 3 -38 19 -45 20 -7 47 17 39 37 -6 18 -49 24 -58
8z"/>
<path d="M2730 991 c-41 -41 -41 -91 -1 -132 16 -16 39 -29 51 -29 28 0 38
-29 15 -46 -27 -20 -63 -17 -77 6 -16 25 -34 26 -46 3 -20 -37 27 -93 76 -93
58 0 122 61 122 116 0 39 -22 64 -56 64 -42 0 -64 18 -64 50 0 23 7 33 30 45
16 8 35 14 42 13 7 -2 13 4 13 12 0 10 -12 16 -38 18 -30 3 -43 -2 -67 -27z"/>
<path d="M1775 980 c-16 -16 -33 -30 -38 -30 -4 0 -24 12 -43 27 -55 42 -61
17 -13 -57 40 -63 40 -63 34 -135 -6 -64 -5 -74 11 -83 48 -27 67 33 43 137
-10 43 -9 45 26 74 42 34 58 66 43 85 -16 19 -32 15 -63 -18z"/>
<path d="M3026 885 l-44 -76 -30 66 c-55 116 -71 67 -26 -77 29 -93 38 -108
65 -108 12 0 26 19 45 60 l27 61 17 -39 c35 -77 65 -59 139 79 40 76 42 82 26
98 -15 15 -18 14 -40 -13 -12 -16 -33 -51 -46 -77 -26 -57 -39 -50 -39 23 0
106 -33 107 -94 3z"/>
<path d="M1940 943 c-52 -20 -87 -109 -69 -175 20 -75 113 -89 184 -27 86 76
53 189 -60 203 -22 3 -47 3 -55 -1z m69 -64 c25 -9 31 -17 31 -39 0 -35 -41
-70 -80 -70 -47 0 -56 66 -14 99 31 25 24 24 63 10z"/>
<path d="M2409 927 c-74 -50 -102 -155 -54 -202 30 -30 67 -32 111 -4 31 19
35 19 58 4 25 -16 80 -16 106 0 13 8 4 203 -10 219 -15 16 -41 -42 -47 -108
-5 -54 -8 -64 -19 -55 -9 7 -14 34 -14 75 0 54 -3 65 -22 78 -31 22 -69 20
-109 -7z m83 -62 c-7 -80 -94 -147 -116 -89 -10 25 25 95 58 115 46 28 62 21
58 -26z"/>
<path d="M3364 940 c-58 -23 -114 -132 -95 -184 22 -56 97 -71 143 -29 16 14
22 15 36 5 9 -7 25 -15 34 -18 12 -4 18 -19 20 -47 2 -31 8 -43 21 -45 30 -6
47 17 47 64 0 42 1 44 30 44 67 0 100 37 100 111 0 29 -7 47 -25 65 -22 22
-32 25 -85 22 -56 -3 -60 -5 -70 -32 -5 -16 -10 -49 -10 -72 0 -43 -11 -56
-26 -32 -4 6 -7 36 -6 66 1 45 -2 57 -21 73 -23 19 -59 23 -93 9z m64 -39 c22
-13 -21 -113 -58 -135 -36 -21 -60 -9 -60 29 0 29 39 87 70 102 30 15 31 15
48 4z m210 -23 c7 -7 12 -24 12 -38 0 -32 -17 -50 -47 -50 -25 0 -43 31 -43
76 0 21 5 24 33 24 18 0 38 -5 45 -12z"/>
</g>
</svg>
