<svg width="223" height="88" viewBox="0 0 223 88" fill="none" xmlns="http://www.w3.org/2000/svg">
<rect x="0.00390625" width="222" height="88" fill="#F9FBFC"/>
<path d="M83.8319 39.9569H79.3545V37.3181H91.5469V39.9569H87.0695V51.3102H83.8319V39.9569ZM94.6144 41.9757C94.9873 41.4559 95.4872 41.0627 96.1133 40.7961C96.7528 40.5299 97.4856 40.3964 98.3118 40.3964V43.275C97.9657 43.2482 97.7324 43.2348 97.6122 43.2348C96.7195 43.2348 96.02 43.488 95.5135 43.9944C95.0071 44.4875 94.7539 45.2337 94.7539 46.2331V51.3102H91.6359V40.5563H94.6144V41.9757ZM109.879 40.5563V51.3102H106.92V50.0308C106.507 50.497 106.014 50.857 105.441 51.1102C104.868 51.35 104.248 51.4701 103.582 51.4701C102.17 51.4701 101.05 51.0635 100.224 50.2507C99.3981 49.438 98.985 48.232 98.985 46.6328V40.5563H102.103V46.1731C102.103 47.9053 102.829 48.7717 104.282 48.7717C105.028 48.7717 105.628 48.5319 106.081 48.0518C106.534 47.5588 106.76 46.8329 106.76 45.8732V40.5563H109.879ZM115.186 51.4701C114.293 51.4701 113.42 51.3634 112.567 51.1504C111.715 50.9235 111.035 50.6439 110.528 50.3108L111.568 48.0721C112.048 48.3785 112.627 48.6317 113.307 48.8313C113.986 49.018 114.653 49.1113 115.306 49.1113C116.625 49.1113 117.285 48.7851 117.285 48.1317C117.285 47.8254 117.104 47.6055 116.745 47.4724C116.385 47.3393 115.832 47.2256 115.086 47.1323C114.206 46.9992 113.48 46.8458 112.907 46.673C112.334 46.4997 111.835 46.1929 111.408 45.7535C110.995 45.3136 110.789 44.6875 110.789 43.8743C110.789 43.1951 110.982 42.5953 111.368 42.0755C111.768 41.5423 112.341 41.1292 113.087 40.8363C113.846 40.5433 114.739 40.3964 115.765 40.3964C116.525 40.3964 117.278 40.4832 118.024 40.6565C118.784 40.8164 119.41 41.0428 119.903 41.3358L118.864 43.5546C117.918 43.0218 116.885 42.7552 115.765 42.7552C115.099 42.7552 114.6 42.8485 114.266 43.0348C113.933 43.2214 113.767 43.4612 113.767 43.7546C113.767 44.0878 113.947 44.3207 114.306 44.4542C114.666 44.5873 115.239 44.7139 116.025 44.834C116.905 44.9805 117.624 45.1404 118.184 45.3136C118.744 45.4735 119.23 45.7734 119.643 46.2132C120.056 46.6527 120.263 47.2658 120.263 48.0518C120.263 48.7181 120.063 49.3114 119.663 49.8307C119.263 50.3506 118.677 50.7572 117.904 51.0501C117.145 51.3301 116.239 51.4701 115.186 51.4701ZM127.923 50.7904C127.617 51.0168 127.237 51.1901 126.784 51.3102C126.344 51.4165 125.878 51.4701 125.385 51.4701C124.106 51.4701 123.113 51.1434 122.407 50.4906C121.714 49.8377 121.367 48.878 121.367 47.6124V43.1951H119.708V40.7961H121.367V38.178H124.485V40.7961H127.164V43.1951H124.485V47.5722C124.485 48.0254 124.599 48.3785 124.825 48.6317C125.065 48.8715 125.398 48.9916 125.825 48.9916C126.318 48.9916 126.737 48.8581 127.084 48.5915L127.923 50.7904ZM154.303 37.3181L149.726 51.3102H146.248L143.17 41.8357L139.992 51.3102H136.534L131.937 37.3181H135.294L138.453 47.1526L141.751 37.3181H144.749L147.947 47.2326L151.205 37.3181H154.303ZM158.229 40.3964C159.894 40.3964 161.174 40.7961 162.067 41.5959C162.959 42.3819 163.406 43.5744 163.406 45.1736V51.3102H160.487V49.9707C159.901 50.9702 158.809 51.4701 157.209 51.4701C156.383 51.4701 155.664 51.3301 155.051 51.0501C154.451 50.7705 153.991 50.3838 153.671 49.8908C153.352 49.3978 153.192 48.8382 153.192 48.2117C153.192 47.2127 153.565 46.4263 154.311 45.8533C155.071 45.2803 156.237 44.9939 157.809 44.9939H160.288C160.288 44.3142 160.081 43.7944 159.668 43.4349C159.255 43.0615 158.635 42.8749 157.809 42.8749C157.236 42.8749 156.67 42.9682 156.11 43.1549C155.564 43.3281 155.097 43.568 154.711 43.8743L153.591 41.6957C154.178 41.2826 154.877 40.9629 155.69 40.7364C156.516 40.5096 157.363 40.3964 158.229 40.3964ZM157.989 49.371C158.522 49.371 158.995 49.2513 159.408 49.0115C159.821 48.7583 160.114 48.3919 160.288 47.9122V46.8126H158.149C156.87 46.8126 156.23 47.2326 156.23 48.0721C156.23 48.4718 156.383 48.7916 156.69 49.0314C157.009 49.2578 157.443 49.371 157.989 49.371ZM165.029 36.479H168.147V51.3102H165.029V36.479ZM169.841 36.479H172.96V51.3102H169.841V36.479ZM185.188 45.973C185.188 46.0132 185.168 46.2932 185.128 46.8126H176.993C177.139 47.4788 177.486 48.0051 178.032 48.3919C178.579 48.7782 179.258 48.9713 180.071 48.9713C180.631 48.9713 181.124 48.8914 181.55 48.7315C181.99 48.5582 182.396 48.2921 182.769 47.9321L184.428 49.7309C183.415 50.8902 181.936 51.4701 179.991 51.4701C178.778 51.4701 177.706 51.2368 176.773 50.7705C175.84 50.2905 175.121 49.6311 174.614 48.7916C174.108 47.952 173.855 46.9992 173.855 45.9332C173.855 44.8807 174.101 43.9344 174.594 43.0948C175.101 42.2423 175.787 41.5825 176.653 41.1162C177.533 40.6362 178.512 40.3964 179.591 40.3964C180.644 40.3964 181.597 40.6232 182.449 41.0761C183.302 41.5293 183.969 42.1822 184.448 43.0348C184.941 43.8743 185.188 44.8539 185.188 45.973ZM179.611 42.7552C178.905 42.7552 178.312 42.9548 177.832 43.3549C177.352 43.7546 177.059 44.3008 176.953 44.9939H182.25C182.143 44.3142 181.85 43.7745 181.37 43.3748C180.89 42.9617 180.304 42.7552 179.611 42.7552ZM193 50.7904C192.694 51.0168 192.314 51.1901 191.861 51.3102C191.421 51.4165 190.955 51.4701 190.462 51.4701C189.183 51.4701 188.19 51.1434 187.484 50.4906C186.791 49.8377 186.444 48.878 186.444 47.6124V43.1951H184.785V40.7961H186.444V38.178H189.562V40.7961H192.241V43.1951H189.562V47.5722C189.562 48.0254 189.676 48.3785 189.902 48.6317C190.142 48.8715 190.475 48.9916 190.902 48.9916C191.395 48.9916 191.815 48.8581 192.161 48.5915L193 50.7904Z" fill="#3375BB"/>
<path d="M56.5607 23.6035H43.013C35.365 23.6035 29.165 29.8035 29.165 37.4515V50.9992C29.165 58.6472 35.365 64.8472 43.013 64.8472H56.5607C64.2088 64.8472 70.4087 58.6472 70.4087 50.9992V37.4515C70.4087 29.8035 64.2088 23.6035 56.5607 23.6035Z" fill="white" stroke="#DFE5EC" stroke-width="0.432095"/>
<path d="M30.7402 44.523C30.7402 33.9388 39.3203 25.3589 49.9043 25.3589C60.4884 25.3589 69.0685 33.9388 69.0685 44.523C69.0685 55.1072 60.4884 63.6873 49.9043 63.6873C39.3203 63.6873 30.7402 55.1072 30.7402 44.523Z" fill="white"/>
<path d="M49.9151 33.0693C53.7824 36.2992 58.2174 36.1001 59.4843 36.1001C59.2073 54.4684 57.0952 50.8259 49.9151 55.9764C42.7351 50.8259 40.6365 54.4684 40.3594 36.1001C41.6132 36.1001 46.048 36.2992 49.9151 33.0693Z" stroke="#3375BB" stroke-width="2.61981" stroke-miterlimit="10" stroke-linecap="round" stroke-linejoin="round"/>
</svg>
