<svg width="223" height="89" viewBox="0 0 223 89" fill="none" xmlns="http://www.w3.org/2000/svg">
<rect x="0.699219" y="0.681152" width="222" height="88" fill="#F9FBFC"/>
<path d="M162.269 40.3721C162.256 40.3593 162.237 40.3401 162.224 40.3273C161.169 39.2076 159.696 38.5166 158.061 38.5166C154.857 38.5166 152.257 41.191 152.257 44.4924C152.257 47.7939 154.857 50.4681 158.061 50.4681C159.734 50.4681 161.246 49.7387 162.308 48.5679C162.308 48.5679 162.321 48.5617 162.314 48.5617C162.025 48.1904 160.622 46.847 160.622 46.847H160.57C159.946 47.5508 159.059 47.9985 158.061 47.9985C156.182 47.9985 154.657 46.4311 154.657 44.4924C154.657 42.5602 156.182 40.9863 158.061 40.9863C159.059 40.9863 159.953 41.4405 160.57 42.1443" fill="#202020"/>
<path d="M145.797 38.5166C142.521 38.5166 139.864 41.2166 139.864 44.5436C139.864 47.8705 142.521 50.5706 145.797 50.5706C149.072 50.5706 151.729 47.8705 151.729 44.5436C151.736 41.2102 149.078 38.5166 145.797 38.5166ZM145.797 48.0754C143.873 48.0754 142.316 46.4951 142.316 44.5436C142.316 42.5922 143.873 41.0119 145.797 41.0119C147.72 41.0119 149.278 42.5922 149.278 44.5436C149.278 46.4951 147.72 48.0754 145.797 48.0754Z" fill="#202020"/>
<path d="M191.789 38.5166V41.2038H188.874V50.462H186.082V41.2038H183.148V38.5166H191.789Z" fill="#202020"/>
<path d="M166.084 38.5166V44.1277L169.77 38.5166H172.408L168.94 43.7566L173.116 50.462H170.079L167.087 46.252L166.077 47.7234V50.462H163.368V38.5166H166.084Z" fill="#202020"/>
<path d="M182.054 40.7943H176.449V43.2448H180.857V45.4968H176.449V48.1074H182.054V50.4681H173.644V38.5166H182.054V40.7943Z" fill="#202020"/>
<path d="M135.174 38.5166H132.478H129.718V50.142V50.4681H132.478V50.142V47.6404H135.174C137.297 47.6404 139.022 45.5992 139.022 43.0784C139.022 40.5576 137.297 38.5166 135.174 38.5166ZM134.061 45.1642H132.478V40.8647H134.061C135.309 40.8647 136.647 41.3445 136.647 43.0145C136.647 44.6012 135.316 45.1642 134.061 45.1642Z" fill="#202020"/>
<path d="M87.3735 38.5166C84.0984 38.5166 81.4409 41.2166 81.4409 44.5436C81.4409 47.8705 84.0984 50.5706 87.3735 50.5706C90.6485 50.5706 93.3057 47.8705 93.3057 44.5436C93.3057 41.2102 90.6485 38.5166 87.3735 38.5166ZM87.3735 48.0754C85.4495 48.0754 83.8924 46.4951 83.8924 44.5436C83.8924 42.5922 85.4495 41.0119 87.3735 41.0119C89.2972 41.0119 90.8542 42.5922 90.8542 44.5436C90.8542 46.4951 89.2972 48.0754 87.3735 48.0754Z" fill="#202020"/>
<path d="M81.1837 38.5674V41.2546H78.2691V50.5127H75.4702V41.2546H72.5361V38.5674H81.1837Z" fill="#202020"/>
<path d="M113.831 40.8451H108.226V43.2956H112.634V45.5476H108.226V48.1582H113.831V50.519H105.421V38.5674H113.831V40.8451Z" fill="#202020"/>
<path d="M124.319 38.5674V50.5125H121.964L117.357 42.4446C117.363 42.6494 117.37 42.7837 117.376 42.8477C117.402 43.0525 117.408 43.2252 117.408 43.366V50.519H115.259V38.5674H118.232L122.234 45.6116C122.202 45.2597 122.182 44.9976 122.182 44.8182V38.5674H124.319Z" fill="#202020"/>
<path d="M96.9094 38.568L96.9224 43.437L101.426 38.5552L103.962 38.5488L99.7535 43.7889L104.406 50.5006L101.491 50.5067L97.9904 45.6507L96.9351 46.6616L96.9416 50.5196L94.3422 50.5261L94.3101 38.5744L96.9094 38.568Z" fill="#202020"/>
<path d="M42.4077 41.383H42.4136C42.4077 41.3475 42.4077 41.306 42.4077 41.2705V41.383Z" fill="#29AEFF"/>
<path d="M54.2007 42.502H47.6733V54.2172C47.6733 54.771 48.1235 55.2186 48.6802 55.2186H53.1938C53.7505 55.2186 54.2007 54.771 54.2007 54.2172V42.502Z" fill="#2980FE"/>
<path d="M44.5224 34.1143H44.3031H32.6164C32.0596 34.1143 31.6094 34.5619 31.6094 35.1156V39.1797C31.6094 39.7333 32.0596 40.181 32.6164 40.181H35.3588H36.4486V41.3825V54.2465C36.4486 54.8001 36.8991 55.2477 37.4558 55.2477H41.7442C42.3012 55.2477 42.7513 54.8001 42.7513 54.2465V41.3825V41.2707V40.181H43.8411H44.2854H44.5044C46.1866 40.181 47.5551 38.8204 47.5551 37.1476C47.5728 35.4749 46.2047 34.1143 44.5224 34.1143Z" fill="#2980FE"/>
<path d="M54.2065 42.502V50.6773C54.4318 50.7304 54.6629 50.7715 54.8996 50.807C55.2314 50.854 55.575 50.8834 55.9186 50.8892C55.9363 50.8892 55.954 50.8892 55.9776 50.8892V44.3868C54.9885 44.322 54.2065 43.5033 54.2065 42.502Z" fill="url(#paint0_linear_2495_14984)"/>
<path d="M56.1081 34.1143C51.4522 34.1143 47.6733 37.8721 47.6733 42.5016C47.6733 46.4832 50.4631 49.817 54.2066 50.677V42.5016C54.2066 41.4591 55.0597 40.611 56.1081 40.611C57.1566 40.611 58.0094 41.4591 58.0094 42.5016C58.0094 43.3793 57.4114 44.1155 56.5937 44.3276C56.4399 44.3688 56.274 44.3924 56.1081 44.3924V50.8889C56.274 50.8889 56.434 50.8831 56.5937 50.8772C61.0244 50.6239 64.5429 46.9722 64.5429 42.5016C64.5488 37.8721 60.7699 34.1143 56.1081 34.1143Z" fill="#2980FE"/>
<path d="M56.1085 50.8884V44.3916C56.061 44.3916 56.0194 44.3916 55.9722 44.3857V50.8884C56.0194 50.8884 56.0669 50.8884 56.1085 50.8884Z" fill="#2980FE"/>
<defs>
<linearGradient id="paint0_linear_2495_14984" x1="56.1108" y1="46.6969" x2="54.2074" y2="46.6969" gradientUnits="userSpaceOnUse">
<stop stop-color="#2980FE"/>
<stop offset="0.9667" stop-color="#6CA8FF"/>
<stop offset="1" stop-color="#2980FE"/>
</linearGradient>
</defs>
</svg>
