<svg width="223" height="89" viewBox="0 0 223 89" fill="none" xmlns="http://www.w3.org/2000/svg">
<rect x="0.699219" y="0.681152" width="222" height="88" fill="#F9FBFC"/>
<path fill-rule="evenodd" clip-rule="evenodd" d="M61.7468 35.4056C62.1713 35.0767 62.643 34.8418 63.0675 34.6069C66.5581 32.5864 70.0958 30.5659 73.5864 28.5924C75.2373 27.6526 76.8883 26.7129 78.5392 25.7731C78.6807 25.6791 78.7751 25.6791 78.9638 25.7731C81.3222 27.1358 83.6807 28.4514 86.0392 29.8141C88.6807 31.3177 91.3694 32.8683 94.0109 34.3719C94.577 34.7008 95.143 35.0297 95.709 35.3587C95.7562 35.5936 95.5204 35.6876 95.3788 35.7346C94.6713 36.1105 93.9638 36.5334 93.2562 36.9563C90.709 38.4129 88.209 39.8695 85.6619 41.2791C83.8222 42.3129 81.9826 43.3936 80.1902 44.4273C79.7185 44.7093 79.2468 44.9912 78.7751 45.2731C78.6336 45.3201 78.4921 45.2261 78.3977 45.1322C75.5204 43.4876 72.643 41.843 69.7656 40.1984C67.1713 38.7418 64.6241 37.2852 62.0298 35.7816C61.8411 35.6876 61.6524 35.6406 61.7468 35.4056Z" fill="#469EA2"/>
<path fill-rule="evenodd" clip-rule="evenodd" d="M78.7286 45.2265C78.9173 44.9915 79.1531 44.8976 79.4361 44.7566C80.0493 44.3807 80.6625 44.0518 81.2758 43.6759C81.889 43.3 82.5022 42.971 83.1154 42.6421C83.8701 42.2192 84.5776 41.7964 85.3324 41.3735C86.3229 40.7626 87.3607 40.2457 88.3512 39.6349C89.1531 39.165 89.955 38.6951 90.7569 38.2253C91.3701 37.8494 91.9833 37.5204 92.5965 37.1445C93.3512 36.7217 94.0588 36.2988 94.8135 35.8759C95.0022 35.7349 95.238 35.6409 95.4739 35.5C95.5682 35.453 95.6625 35.406 95.7097 35.312C95.8512 35.359 95.8041 35.453 95.8041 35.547C95.8041 36.5807 95.8041 37.6144 95.8041 38.6482C95.8041 38.7891 95.8041 38.8831 95.8041 39.0241C95.8041 43.112 95.8041 47.2 95.8041 51.2879C95.8041 52.3686 95.8041 53.4964 95.8041 54.5771C95.8041 54.812 95.7097 54.906 95.521 55.047C94.672 55.5168 93.8701 55.9867 93.0682 56.4566C89.389 58.5241 85.7569 60.6385 82.1248 62.706C81.0871 63.3168 80.0493 63.8807 79.0116 64.4915C78.9644 64.5385 78.8701 64.5385 78.8229 64.5855C78.6814 64.6795 78.6814 64.5385 78.6342 64.4446C78.5871 64.3036 78.6342 64.1626 78.6342 64.0686C78.6342 58.0072 78.6342 51.8988 78.6342 45.8373C78.6342 45.6024 78.5871 45.3674 78.7286 45.2265Z" fill="#439B9E"/>
<mask id="mask0_2495_15081" style="mask-type:alpha" maskUnits="userSpaceOnUse" x="61" y="35" width="18" height="30">
<path fill-rule="evenodd" clip-rule="evenodd" d="M61.7007 35.3916H78.8705V64.6651H61.7007V35.3916Z" fill="white"/>
</mask>
<g mask="url(#mask0_2495_15081)">
<path fill-rule="evenodd" clip-rule="evenodd" d="M78.7281 45.2111C78.7281 51.5545 78.7281 57.8509 78.7281 64.1942C78.7281 64.2882 78.7281 64.3822 78.7281 64.4762C78.7281 64.5701 78.7753 64.6171 78.8224 64.6171C78.7281 64.7111 78.6337 64.6171 78.5866 64.6171C78.0677 64.3352 77.5488 64.0533 77.03 63.7244C74.4356 62.2207 71.8413 60.7641 69.247 59.2605C67.7375 58.4147 66.2281 57.5219 64.7186 56.6762C63.7753 56.1593 62.8319 55.5954 61.8885 55.0786C61.747 54.9846 61.6998 54.8436 61.6998 54.6557C61.6998 53.6219 61.6998 52.5412 61.6998 51.5075C61.6998 46.2448 61.6998 40.9822 61.6998 35.7665C61.6998 35.6256 61.6526 35.4846 61.747 35.3906C61.747 35.4846 61.7941 35.5786 61.8885 35.6256C62.7847 36.0954 63.6809 36.6123 64.53 37.1292C65.3319 37.5521 66.0866 38.022 66.8885 38.4448C67.6903 38.9147 68.4922 39.3376 69.247 39.8075C70.1432 40.3244 71.0394 40.8412 71.9828 41.3581C72.6903 41.734 73.3507 42.1569 74.0583 42.5328C74.6715 42.9087 75.3319 43.2846 75.9451 43.6135C76.6526 43.9894 77.313 44.4123 78.0205 44.7882C78.2564 44.9762 78.4922 45.1641 78.7281 45.2111Z" fill="#3D9197"/>
</g>
<path fill-rule="evenodd" clip-rule="evenodd" d="M65.0489 35.7819C65.0017 35.641 65.0961 35.547 65.2376 35.453C65.6149 35.2181 66.0395 34.9831 66.4168 34.7952C67.3602 34.2783 68.2564 33.7614 69.1998 33.1976C70.1432 32.6807 71.0866 32.1169 72.03 31.6C72.9263 31.0831 73.8225 30.5663 74.7659 30.0494C75.5678 29.5795 76.3225 29.1566 77.1244 28.6867C77.2187 28.6398 77.313 28.5928 77.4546 28.6398C78.1621 28.9217 78.8696 28.9687 79.5772 28.8277C79.813 28.7807 80.0017 28.7337 80.1904 28.6398C80.3319 28.5928 80.4263 28.5928 80.5206 28.6867C81.1338 29.0626 81.747 29.3916 82.3602 29.7675C83.3036 30.2843 84.1998 30.8012 85.1432 31.3651C86.0395 31.8819 86.9357 32.3988 87.8791 32.9157C88.9168 33.5265 89.9546 34.0904 90.9451 34.7012C91.4168 34.9831 91.9357 35.2651 92.4074 35.547C92.6432 35.6879 92.6432 35.8759 92.4074 35.9699C91.7942 36.2988 91.2281 36.6747 90.6149 37.0036C89.813 37.4735 89.0112 37.8964 88.2564 38.3663C87.313 38.8831 86.4168 39.447 85.4734 39.9638C84.4829 40.5277 83.4923 41.0916 82.5017 41.6554C82.03 41.9373 81.5583 42.1723 81.0866 42.4542C80.9451 42.5482 80.8508 42.5012 80.7564 42.4542C79.8602 41.8434 78.8696 41.7494 77.8319 41.9843C77.5017 42.0783 77.1715 42.2193 76.9357 42.4072C76.7942 42.5012 76.6527 42.5012 76.5112 42.4072C75.4734 41.7964 74.3885 41.1855 73.3036 40.5747C72.313 40.0108 71.3225 39.447 70.3319 38.8831C69.3885 38.3663 68.4923 37.8494 67.5489 37.2855C66.7942 36.8626 66.0395 36.4398 65.2847 35.9699C65.1432 35.9699 65.0017 35.9699 65.0489 35.7819Z" fill="#6ACAD1"/>
<path fill-rule="evenodd" clip-rule="evenodd" d="M94.0589 45.1785C94.0589 47.3869 94.0589 49.5954 94.0589 51.8038C94.0589 52.0387 94.0118 52.1797 93.8231 52.3207C93.0684 52.8845 92.691 53.6363 92.5967 54.5291C92.5967 54.7171 92.5023 54.764 92.3608 54.858C91.8419 55.1869 91.2759 55.4689 90.757 55.7978C89.9552 56.2677 89.1533 56.6906 88.3985 57.1604C87.4552 57.6773 86.5589 58.1942 85.6155 58.758C84.8608 59.1809 84.0589 59.6508 83.3042 60.0737C82.3608 60.5906 81.4646 61.1074 80.5212 61.6713C80.3797 61.7653 80.2853 61.7183 80.1438 61.6713C80.0495 61.6243 80.0023 61.5773 80.0023 61.4833C80.0023 61.4363 80.0023 61.3424 80.0023 61.2954C80.0023 60.3556 80.0023 59.4628 80.0023 58.5231C79.908 55.2809 79.9552 52.0387 79.9552 48.7966C79.9552 48.7496 79.9552 48.7026 79.9552 48.6086C79.908 48.3737 80.0495 48.2797 80.2382 48.1857C81.2759 47.7159 81.8891 46.9171 82.0778 45.8363C82.125 45.5074 82.125 45.1785 82.125 44.8496C82.125 44.7086 82.1721 44.6146 82.2665 44.5207C82.7382 44.2387 83.2099 43.9568 83.7287 43.6749C84.5778 43.158 85.4268 42.6881 86.2759 42.1713C87.2665 41.6074 88.257 41.0436 89.2476 40.4327C90.0495 39.9628 90.8985 39.493 91.7004 39.0231C92.3136 38.6942 92.9269 38.3183 93.4929 37.9893C93.5872 37.9424 93.6816 37.9424 93.7759 37.9893C93.9646 38.1303 94.0589 38.2713 94.0589 38.5062C94.0589 40.7616 94.0589 42.9701 94.0589 45.1785Z" fill="#66C4CC"/>
<path fill-rule="evenodd" clip-rule="evenodd" d="M75.4739 45.18C75.4739 45.8378 75.6154 46.4486 75.9456 47.0125C76.2758 47.5294 76.7003 47.9522 77.2663 48.1872C77.455 48.2812 77.5493 48.3751 77.5493 48.6101C77.5493 52.886 77.5493 57.1149 77.5493 61.3908C77.5493 61.7667 77.3135 61.8607 77.0305 61.6727C75.521 60.78 73.9644 59.9342 72.455 59.0414C70.8984 58.1486 69.3418 57.2559 67.7852 56.3631C66.9833 55.8932 66.1343 55.4233 65.3324 55.0004C65.0965 54.8125 65.0022 54.6715 65.0022 54.4366C64.955 54.0137 64.8135 53.6378 64.6248 53.3089C64.389 52.886 64.106 52.5571 63.7286 52.3221C63.5399 52.2281 63.4927 52.0872 63.4927 51.8992C63.4927 47.4354 63.4927 43.0185 63.4927 38.5547C63.4927 38.4607 63.4456 38.3197 63.5399 38.2257C63.7286 38.0378 63.8229 37.9908 64.0588 38.1318C64.8135 38.5547 65.6154 39.0245 66.3701 39.4474C67.3135 39.9643 68.2097 40.5282 69.1531 41.045C69.9078 41.4679 70.7097 41.9378 71.4644 42.3607C72.4078 42.8775 73.3041 43.4414 74.2475 43.9583C74.5777 44.1462 74.9078 44.3342 75.238 44.5221C75.3795 44.6161 75.4267 44.7101 75.4267 44.851C75.4739 44.945 75.4739 45.039 75.4739 45.18Z" fill="#5DB7C0"/>
<path fill-rule="evenodd" clip-rule="evenodd" d="M150.52 34.3247C152.36 33.9957 154.152 33.9488 155.992 34.3247C157.218 34.5596 158.351 35.0295 159.294 35.8283C159.954 36.3921 160.426 37.05 160.756 37.8018C161.039 38.4126 161.228 39.0704 161.322 39.7753C161.322 39.9162 161.322 39.9632 161.181 39.9632C160.143 40.1042 159.152 40.2451 158.115 40.4331C157.973 40.4801 157.926 40.4331 157.879 40.2921C157.785 39.9162 157.643 39.5403 157.454 39.1644C156.935 38.0367 156.039 37.3319 154.813 37.1439C153.869 37.003 152.973 36.956 152.03 37.05C151.369 37.1439 150.756 37.2379 150.143 37.5668C149.105 38.0837 148.681 38.9295 148.728 40.0572C148.728 40.3391 148.775 40.5741 148.822 40.856C148.964 41.5138 149.388 41.9837 149.954 42.3126C150.52 42.6415 151.134 42.8295 151.794 42.9704C152.832 43.2054 153.917 43.3933 155.002 43.5813C156.134 43.8162 157.218 44.0512 158.256 44.521C158.728 44.756 159.2 44.9909 159.624 45.3198C160.52 45.9777 161.086 46.8704 161.369 47.9042C161.7 49.0319 161.747 50.2066 161.464 51.3813C161.134 52.8849 160.332 54.0126 159.058 54.8584C158.068 55.5162 156.983 55.8451 155.851 56.0801C154.671 56.315 153.492 56.268 152.313 56.221C151.275 56.1741 150.237 55.9861 149.247 55.6572C148.351 55.3283 147.502 54.9054 146.794 54.2945C145.709 53.3548 145.143 52.1801 144.813 50.8644C144.718 50.3945 144.624 49.8777 144.624 49.3608C144.718 49.3138 144.813 49.3138 144.907 49.3138C145.945 49.3138 146.983 49.3138 148.02 49.3138C148.351 49.3138 148.256 49.3138 148.303 49.5957C148.351 49.9716 148.445 50.3475 148.586 50.7235C149.011 51.8512 149.813 52.556 150.945 52.9319C152.124 53.3078 153.351 53.3548 154.577 53.2608C155.285 53.2138 155.945 52.9789 156.558 52.65C157.313 52.2271 157.69 51.5692 157.832 50.7235C157.879 50.3006 157.926 49.8777 157.832 49.4548C157.69 48.609 157.218 47.9512 156.464 47.5283C155.803 47.1524 155.096 47.0114 154.388 46.8704C153.115 46.6355 151.841 46.4475 150.615 46.1186C149.907 45.9307 149.2 45.7427 148.539 45.4608C147.596 45.0849 146.794 44.568 146.181 43.7222C145.662 43.0644 145.426 42.3126 145.285 41.5138C145.096 40.4331 145.096 39.3994 145.426 38.3656C145.756 37.2849 146.417 36.4391 147.313 35.7343C148.256 34.9825 149.341 34.5596 150.52 34.3247ZM129.435 34.9355C129.435 34.5596 129.388 34.6066 129.766 34.6066C134.058 34.6066 138.351 34.6066 142.69 34.6066C143.068 34.6066 143.02 34.5596 143.02 34.9355C143.02 35.7813 143.02 36.5801 143.02 37.4259V37.4729V37.5668C143.02 37.7078 142.973 37.7078 142.737 37.7078C139.624 37.7078 136.511 37.7078 133.445 37.7078C133.02 37.7078 133.02 37.7078 133.02 38.0837C133.02 39.8222 133.02 41.6078 133.02 43.3463C133.02 43.7222 133.02 43.6753 133.351 43.6753C136.228 43.6753 139.105 43.6753 141.983 43.6753H142.218C142.407 43.6753 142.407 43.6753 142.407 43.8632V46.5885C142.407 46.7765 142.36 46.7765 142.124 46.7765C139.341 46.7765 136.558 46.7765 133.775 46.7765C133.586 46.7765 133.351 46.7765 133.162 46.7765C133.068 46.7765 133.02 46.8235 133.02 46.9174C133.02 47.0114 133.02 47.0584 133.02 47.1524C133.02 49.9247 133.02 52.65 133.02 55.4222C133.02 55.7981 133.068 55.7512 132.69 55.7512C131.7 55.7512 130.709 55.7512 129.671 55.7512C129.341 55.7512 129.388 55.7982 129.388 55.4692C129.388 52.0391 129.388 48.609 129.388 45.2259V40.1042L129.435 34.9355ZM105.898 34.5596H107.36C107.737 34.5596 107.69 34.5126 107.69 34.8885C107.69 38.3186 107.69 41.7018 107.69 45.1319C107.69 48.515 107.69 51.9451 107.69 55.3283C107.69 55.7042 107.737 55.6572 107.36 55.6572C106.369 55.6572 105.379 55.6572 104.341 55.6572H104.294H104.2C104.058 55.6572 104.058 55.6572 104.058 55.4692V34.7945V34.7476V34.6536C104.058 34.4656 104.105 34.5126 104.388 34.5126C105.379 34.5126 106.322 34.5126 107.313 34.5126L105.898 34.5596ZM111.605 34.5596H111.652C114.152 34.5596 116.605 34.5596 119.105 34.5596C120.143 34.5596 121.134 34.6536 122.124 34.9355C122.973 35.1704 123.775 35.4524 124.483 35.9692C125.426 36.6271 126.039 37.4729 126.369 38.6006C126.888 40.2921 126.841 42.0307 126.322 43.7222C125.851 45.2259 124.86 46.2596 123.445 46.9174C122.596 47.3403 121.652 47.5283 120.709 47.6692C119.954 47.7632 119.2 47.7632 118.445 47.7632C117.313 47.7632 116.228 47.7632 115.096 47.7632H115.002C114.86 47.7632 114.86 47.7632 114.86 47.9042V47.9982C114.86 50.4415 114.86 52.8849 114.86 55.3283C114.86 55.7042 114.907 55.6572 114.53 55.6572C113.586 55.6572 112.643 55.6572 111.652 55.6572C111.228 55.6572 111.322 55.7042 111.322 55.2813C111.322 52.556 111.322 49.7837 111.322 47.0584V39.9632V34.8885C111.322 34.5596 111.275 34.5596 111.511 34.5596H111.605ZM118.964 37.5198H114.907V44.803H118.917C119.058 44.803 119.341 44.803 119.53 44.803C121.275 44.662 123.209 44.0512 123.209 41.1849C123.209 38.2716 121.275 37.7078 119.53 37.5668C119.341 37.5668 119.058 37.5668 118.917 37.5668L118.964 37.5198Z" fill="#232323"/>
</svg>
