<svg width="223" height="88" viewBox="0 0 223 88" fill="none" xmlns="http://www.w3.org/2000/svg">
<rect x="0.547363" width="222" height="88" fill="#F9FBFC"/>
<g clip-path="url(#clip0_2516_14612)">
<path fill-rule="evenodd" clip-rule="evenodd" d="M72.571 48.1308C73.0683 46.7153 73.3124 45.2222 73.2921 43.7207C73.3117 42.2242 73.0675 40.7361 72.571 39.3256C72.128 38.0696 71.4374 36.917 70.5408 35.9369C69.6605 34.9938 68.5891 34.2524 67.3995 33.7632C66.1161 33.2425 64.7431 32.9834 63.3597 33.0009C61.9783 32.9828 60.6074 33.2451 59.3288 33.7721C58.1438 34.2654 57.0753 35.0051 56.1933 35.9429C55.2962 36.9202 54.6054 38.0711 54.1632 39.3256C53.6667 40.7361 53.4225 42.2242 53.4421 43.7207C53.4218 45.2222 53.6659 46.7153 54.1632 48.1308C54.6054 49.3852 55.2962 50.5361 56.1933 51.5135C57.074 52.4513 58.1429 53.1893 59.3288 53.6783C61.9245 54.6946 64.8037 54.6946 67.3995 53.6783C68.5875 53.1901 69.6585 52.4521 70.5408 51.5135C71.4379 50.5361 72.1287 49.3852 72.571 48.1308ZM71.1314 39.7753C71.5456 41.048 71.7454 42.3816 71.7224 43.7208C71.7467 45.0621 71.547 46.3979 71.1314 47.6722C70.7678 48.7655 70.1854 49.7719 69.4203 50.6292C68.6837 51.4414 67.7745 52.0756 66.7606 52.4844C64.5728 53.3303 62.1516 53.3303 59.9637 52.4844C58.9511 52.0731 58.0425 51.4393 57.3041 50.6292C56.5353 49.7725 55.9489 48.7661 55.5812 47.6722C55.158 46.3993 54.9522 45.0632 54.9724 43.7208C54.9561 42.3854 55.163 41.0566 55.5841 39.7902C55.9494 38.689 56.5358 37.6753 57.307 36.8125C58.0469 36.0025 58.955 35.367 59.9667 34.9514C62.1524 34.0937 64.5779 34.0937 66.7636 34.9514C67.7766 35.3645 68.6853 36.0003 69.4233 36.8125C70.188 37.6718 70.7693 38.6803 71.1314 39.7753Z" fill="#0364FF"/>
<path fill-rule="evenodd" clip-rule="evenodd" d="M88.7611 54.44C89.2549 54.44 89.5342 53.8735 89.2334 53.4817L82.8466 45.1612C82.6738 44.9243 82.46 44.7224 82.2164 44.5657C83.0605 44.4723 83.8872 44.2537 84.6711 43.9166C85.3582 43.6183 85.9878 43.1947 86.5301 42.6658C87.0378 42.1611 87.4386 41.5527 87.707 40.8792C87.9876 40.1677 88.1275 39.4053 88.1186 38.6369C88.1128 36.7887 87.5162 35.3872 86.3286 34.4323C85.1411 33.4774 83.357 33 80.9761 33H76.2709C75.9419 33 75.6753 33.2666 75.6753 33.5956V53.8444C75.6753 54.1733 75.9419 54.44 76.2709 54.44H76.5876C76.9166 54.44 77.1832 54.1733 77.1832 53.8444V45.3399C77.1832 45.011 77.4499 44.7443 77.7788 44.7443H79.8998C80.074 44.7427 80.248 44.7536 80.4207 44.7771C80.5466 44.7906 80.6698 44.8238 80.7862 44.8754C80.8924 44.9191 80.9899 44.9827 81.0739 45.063C81.1628 45.1547 81.2437 45.2543 81.3157 45.3607L87.9632 54.0588C88.0408 54.1847 88.149 54.2874 88.2769 54.3566C88.4081 54.4165 88.5507 54.445 88.6942 54.44H88.7611ZM83.2269 43.2495C82.4256 43.489 81.5946 43.6044 80.7607 43.592H77.7793C77.4503 43.592 77.1837 43.3253 77.1837 42.9964V34.8224C77.1837 34.4935 77.4503 34.2269 77.7793 34.2269H80.9794C82.8192 34.2289 84.2188 34.5981 85.178 35.3346C86.1372 36.0711 86.6169 37.2017 86.6169 38.7263C86.6272 39.4198 86.4928 40.1075 86.2226 40.7423C85.959 41.338 85.5649 41.862 85.0715 42.2729C84.5252 42.7215 83.8982 43.0536 83.2269 43.2495Z" fill="#0364FF"/>
<path d="M100.294 53.0748C101.224 53.0919 102.148 52.9115 103.005 52.5451C103.776 52.2071 104.465 51.7047 105.026 51.0723C105.591 50.4243 106.022 49.6686 106.293 48.8497C106.588 47.9611 106.733 47.0288 106.723 46.0916V33.7558C106.723 33.3384 107.061 33 107.479 33C107.896 33 108.235 33.3384 108.235 33.7558V46.0916C108.244 47.2066 108.059 48.3146 107.687 49.3644C107.34 50.3445 106.803 51.2447 106.107 52.0126C105.408 52.7799 104.555 53.3884 103.606 53.7978C101.479 54.6548 99.1084 54.6548 96.9822 53.7978C96.0321 53.3892 95.1792 52.7806 94.4807 52.0126C93.784 51.2456 93.247 50.3451 92.9014 49.3644C92.5293 48.3146 92.3438 47.2066 92.3534 46.0916V33.7587C92.3534 33.3397 92.6931 33 93.1121 33C93.5311 33 93.8708 33.3397 93.8708 33.7587V46.0737C93.8623 47.0123 94.0097 47.9456 94.3069 48.8349C94.5781 49.6524 95.0067 50.4077 95.5679 51.0575C96.1237 51.695 96.8105 52.2027 97.5803 52.5451C98.4373 52.9147 99.3624 53.0953 100.294 53.0748Z" fill="#0364FF"/>
<path d="M123.183 35.7847C123.119 35.9385 122.97 36.0381 122.805 36.0378C122.616 36.0058 122.443 35.9092 122.315 35.7639C122.061 35.545 121.791 35.3459 121.506 35.1684C121.105 34.9147 120.676 34.7089 120.228 34.5551C118.967 34.1603 117.617 34.1707 116.363 34.5849C115.831 34.7801 115.344 35.0841 114.932 35.4781C114.551 35.8449 114.252 36.2893 114.052 36.7822C113.855 37.2757 113.756 37.8037 113.759 38.3363C113.734 38.9551 113.888 39.5678 114.202 40.0989C114.507 40.5742 114.907 40.9797 115.375 41.2898C115.893 41.6301 116.449 41.9059 117.031 42.1115C117.647 42.3319 118.284 42.5522 118.935 42.7695C119.586 42.9869 120.222 43.2281 120.838 43.487C121.433 43.736 121.99 44.0677 122.495 44.4726C122.981 44.8708 123.381 45.3676 123.668 45.9315C123.983 46.6036 124.135 47.3429 124.11 48.0871C124.118 48.9342 123.969 49.7753 123.673 50.5672C123.387 51.3255 122.946 52.0142 122.38 52.5888C121.788 53.1791 121.084 53.6402 120.31 53.9434C119.415 54.2875 118.464 54.4553 117.506 54.4377C116.294 54.4705 115.09 54.2199 113.988 53.7052C113.233 53.3287 112.541 52.8385 111.934 52.2524C111.606 51.936 111.573 51.4323 111.815 51.0465C111.908 50.9105 112.059 50.8276 112.223 50.8233C112.351 50.8431 112.47 50.9059 112.56 51.0018L113.055 51.4366C113.249 51.6122 113.483 51.7998 113.756 52.0022C114.053 52.2206 114.37 52.4091 114.703 52.5649C115.59 52.9808 116.559 53.1903 117.536 53.1782C118.283 53.1913 119.026 53.0631 119.726 52.8001C120.331 52.5681 120.883 52.2135 121.348 51.7581C121.791 51.3217 122.136 50.7937 122.359 50.2099C122.597 49.5995 122.717 48.9486 122.712 48.2925C122.737 47.6516 122.582 47.0167 122.266 46.4615C121.965 45.9829 121.564 45.5765 121.093 45.2705C120.575 44.9352 120.02 44.6642 119.439 44.4636C118.82 44.2463 118.187 44.0349 117.533 43.8265C116.879 43.6181 116.249 43.3888 115.63 43.1298C115.033 42.8866 114.475 42.5555 113.973 42.1473C113.482 41.7416 113.082 41.2341 112.8 40.6586C112.48 39.9562 112.328 39.1872 112.354 38.4137C112.354 37.7174 112.488 37.0277 112.747 36.3832C113.01 35.7341 113.403 35.1471 113.9 34.6593C114.442 34.1406 115.08 33.7358 115.776 33.4684C116.589 33.149 117.454 32.9903 118.325 33.0009C119.309 32.9854 120.288 33.1613 121.207 33.519C121.847 33.7834 122.442 34.1435 122.974 34.5862C123.325 34.8783 123.392 35.3787 123.183 35.7847Z" fill="#0364FF"/>
<path fill-rule="evenodd" clip-rule="evenodd" d="M34.0072 33C32.8987 33 32 33.8987 32 35.0072V37.3455C32 38.4541 32.8987 39.3528 34.0072 39.3528H37.5586V52.4333C37.5586 53.5418 38.4573 54.4405 39.5658 54.4405H41.9041C43.0126 54.4405 43.9113 53.5418 43.9113 52.4333V37.3625C43.9114 37.3568 43.9114 37.3512 43.9114 37.3455V35.0072C43.9114 33.8987 43.0127 33 41.9042 33H39.5658H34.0072Z" fill="#0364FF"/>
<path d="M48.6769 39.3527C50.4311 39.3527 51.8532 37.9306 51.8532 36.1764C51.8532 34.4221 50.4311 33 48.6769 33C46.9226 33 45.5005 34.4221 45.5005 36.1764C45.5005 37.9306 46.9226 39.3527 48.6769 39.3527Z" fill="#0016DE"/>
<path d="M132.977 34.4888C133.487 34.4888 133.9 34.9019 133.9 35.4114V52.3266C133.9 52.8362 133.487 53.2492 132.977 53.2492C132.468 53.2492 132.055 52.8362 132.055 52.3266V35.4114C132.055 34.9019 132.468 34.4888 132.977 34.4888Z" fill="#BEBEBE"/>
<path d="M155.944 41.0786C156.347 41.0786 156.634 41.4725 156.511 41.8571L153.743 50.4334C153.665 50.6794 153.436 50.8462 153.177 50.8462H152.169C151.911 50.8462 151.682 50.6799 151.603 50.4345L149.303 43.351L147.023 50.4331C146.944 50.6793 146.715 50.8462 146.456 50.8462H145.469C145.211 50.8462 144.981 50.6794 144.903 50.4334L142.136 41.8571C142.012 41.4725 142.299 41.0786 142.702 41.0786H143.354C143.618 41.0786 143.851 41.2525 143.925 41.5058L145.973 48.4541H145.993L148.272 41.489C148.351 41.2442 148.58 41.0786 148.837 41.0786H149.868C150.126 41.0786 150.354 41.2442 150.435 41.489L152.713 48.4541H152.733L154.761 41.5072C154.836 41.2532 155.069 41.0786 155.333 41.0786H155.944Z" fill="black"/>
<path d="M159.097 47.8562C159.097 48.3346 159.297 48.7333 159.695 49.0522C160.108 49.3711 160.586 49.5306 161.131 49.5306C161.902 49.5306 162.587 49.2449 163.185 48.6735C163.72 48.1743 164.02 47.5992 164.088 46.9481C164.107 46.7669 164.021 46.5907 163.866 46.4945C163.318 46.1531 162.6 45.9824 161.709 45.9824C160.965 45.9824 160.34 46.1618 159.835 46.5206C159.343 46.8794 159.097 47.3246 159.097 47.8562ZM161.47 40.7598C162.827 40.7598 163.896 41.1252 164.681 41.8562C165.465 42.5738 165.858 43.5638 165.858 44.8263V50.2507C165.858 50.5796 165.591 50.8462 165.261 50.8462H164.698C164.369 50.8462 164.103 50.5796 164.103 50.2507V49.5429C164.103 49.5141 164.079 49.4907 164.05 49.4907C164.033 49.4907 164.017 49.4994 164.007 49.5137C163.251 50.6147 162.246 51.1652 160.991 51.1652C159.915 51.1652 159.011 50.8462 158.28 50.2083C157.562 49.5705 157.203 48.7731 157.203 47.8163C157.203 46.8063 157.581 46.0023 158.339 45.4043C159.11 44.8063 160.134 44.5073 161.411 44.5073C162.316 44.5073 163.088 44.6448 163.728 44.9198C163.899 44.9936 164.103 44.8737 164.103 44.6867C164.103 44.0488 163.85 43.5106 163.345 43.0721C162.84 42.6203 162.248 42.3944 161.57 42.3944C160.738 42.3944 160.048 42.6791 159.497 43.2488C159.275 43.478 158.925 43.5562 158.655 43.3864L158.051 43.0062C157.763 42.825 157.682 42.4364 157.911 42.1854C158.781 41.235 159.967 40.7598 161.47 40.7598Z" fill="black"/>
<path d="M169.165 36.5737C169.494 36.5737 169.761 36.8404 169.761 37.1693V50.2507C169.761 50.5796 169.494 50.8463 169.165 50.8463H168.522C168.193 50.8463 167.927 50.5796 167.927 50.2507V37.1693C167.927 36.8404 168.193 36.5737 168.522 36.5737H169.165Z" fill="black"/>
<path d="M173.236 36.5737C173.565 36.5737 173.831 36.8404 173.831 37.1693V50.2507C173.831 50.5796 173.565 50.8463 173.236 50.8463H172.593C172.264 50.8463 171.997 50.5796 171.997 50.2507V37.1693C171.997 36.8404 172.264 36.5737 172.593 36.5737H173.236Z" fill="black"/>
<path d="M180.358 51.1652C178.922 51.1652 177.738 50.6735 176.808 49.6901C175.877 48.7066 175.412 47.4641 175.412 45.9624C175.412 44.4741 175.863 43.2382 176.768 42.2548C177.672 41.2581 178.828 40.7598 180.237 40.7598C181.686 40.7598 182.836 41.2315 183.688 42.1751C184.552 43.1053 184.983 44.4142 184.983 46.102C184.973 46.2152 184.877 46.3013 184.764 46.3013H177.593C177.424 46.3013 177.289 46.4401 177.305 46.607C177.386 47.4237 177.698 48.0925 178.244 48.6136C178.855 49.1983 179.586 49.4907 180.437 49.4907C181.439 49.4907 182.254 49.0625 182.885 48.2061C183.072 47.9531 183.409 47.8438 183.692 47.9816L184.27 48.2634C184.572 48.4113 184.696 48.7837 184.503 49.0607C184.103 49.6376 183.598 50.1066 182.99 50.4675C182.219 50.9326 181.341 51.1652 180.358 51.1652ZM177.523 44.4282C177.464 44.6094 177.607 44.7864 177.797 44.7864H182.707C182.881 44.7864 183.019 44.6378 182.986 44.4674C182.88 43.9315 182.616 43.4797 182.192 43.1119C181.7 42.6601 181.035 42.4342 180.198 42.4342C179.506 42.4342 178.908 42.6468 178.403 43.0721C177.996 43.424 177.702 43.8761 177.523 44.4282Z" fill="black"/>
<path d="M190.237 51.0054C189.44 51.0054 188.775 50.7596 188.244 50.2679C187.725 49.7762 187.459 49.0918 187.446 48.2147V42.7529H186.326C185.998 42.7529 185.731 42.4862 185.731 42.1573V41.674C185.731 41.345 185.998 41.0784 186.326 41.0784H187.446V38.6839C187.446 38.355 187.712 38.0884 188.041 38.0884H188.685C189.014 38.0884 189.281 38.355 189.281 38.6839V41.0784H191.078C191.407 41.0784 191.673 41.345 191.673 41.674V42.1573C191.673 42.4862 191.407 42.7529 191.078 42.7529H189.281V47.6167C189.281 48.2678 189.407 48.7131 189.66 48.9523C189.912 49.1782 190.198 49.2912 190.517 49.2912C190.663 49.2912 190.803 49.2778 190.936 49.2513C191.156 49.1913 191.4 49.2955 191.475 49.5104L191.716 50.1884C191.825 50.497 191.664 50.8392 191.343 50.9038C191.006 50.9716 190.637 51.0054 190.237 51.0054Z" fill="black"/>
</g>
<defs>
<clipPath id="clip0_2516_14612">
<rect width="160" height="21.5544" fill="white" transform="translate(32 33)"/>
</clipPath>
</defs>
</svg>
