<svg width="223" height="89" viewBox="0 0 223 89" fill="none" xmlns="http://www.w3.org/2000/svg">
<rect x="0.699219" y="0.875977" width="222" height="88" fill="#F9FBFC"/>
<g clip-path="url(#clip0_2495_14794)">
<path d="M76.5082 36.6915C77.428 48.6766 69.4195 54.3414 62.2401 54.9455C55.5653 55.507 49.2825 51.5616 48.7313 45.4997C48.2766 40.4915 51.4942 38.3594 54.0222 38.1468C56.6224 37.9276 58.8073 39.6525 58.9969 41.741C59.1795 43.749 57.8771 44.6629 56.9712 44.739C56.2549 44.7994 55.3537 44.381 55.2723 43.4827C55.2025 42.7109 55.5072 42.6057 55.4328 41.7858C55.3002 40.3259 53.9769 40.1559 53.2524 40.2163C52.3757 40.2901 50.7849 41.2745 51.0082 43.7266C51.2326 46.1999 53.6978 48.1542 56.9294 47.8824C60.4167 47.5893 62.8447 44.9773 63.0273 41.3137C63.0257 41.1197 63.0681 40.9276 63.1517 40.751L63.1529 40.7465C63.1905 40.6698 63.2344 40.5961 63.2843 40.5262C63.3587 40.4188 63.4541 40.3002 63.5773 40.1704C63.5785 40.1671 63.5785 40.1671 63.5808 40.1671C63.6704 40.0698 63.7785 39.9646 63.9006 39.8516C65.4239 38.469 70.9102 35.2081 76.0988 36.2406C76.2085 36.2633 76.3076 36.3194 76.3814 36.4006C76.4551 36.4819 76.4996 36.5839 76.5082 36.6915" fill="url(#paint0_linear_2495_14794)"/>
<path d="M89.8644 41.8276H87.4922C87.4466 41.8276 87.4097 41.8632 87.4097 41.9071V53.3027C87.4097 53.3466 87.4466 53.3821 87.4922 53.3821H89.8644C89.91 53.3821 89.947 53.3466 89.947 53.3027V41.9071C89.947 41.8632 89.91 41.8276 89.8644 41.8276Z" fill="#11293B"/>
<path d="M123.638 37.7471V39.5436C123.637 39.564 123.629 39.5833 123.613 39.5975C123.598 39.6117 123.578 39.6197 123.557 39.6197H118.747C118.726 39.6194 118.705 39.6272 118.69 39.6414C118.674 39.6557 118.665 39.6752 118.665 39.6958V53.3096C118.664 53.3199 118.662 53.3301 118.657 53.3395C118.653 53.3488 118.647 53.3573 118.639 53.3644C118.631 53.3714 118.622 53.377 118.612 53.3806C118.602 53.3843 118.592 53.386 118.581 53.3857H116.102C116.08 53.386 116.06 53.3784 116.045 53.3644C116.029 53.3504 116.02 53.3311 116.019 53.3108V39.6958C116.018 39.6752 116.009 39.6557 115.994 39.6414C115.979 39.6272 115.958 39.6194 115.937 39.6197H110.693C110.672 39.6197 110.652 39.6117 110.637 39.5975C110.621 39.5833 110.612 39.564 110.612 39.5436V37.7471C110.612 37.7267 110.621 37.7073 110.637 37.6931C110.652 37.6789 110.672 37.671 110.693 37.671H123.548C123.572 37.6699 123.595 37.6766 123.611 37.6911C123.62 37.6981 123.626 37.7067 123.631 37.7163C123.636 37.726 123.638 37.7365 123.638 37.7471V37.7471ZM111.355 46.0139L111.38 46.0183V53.3096C111.38 53.33 111.371 53.3494 111.356 53.3636C111.341 53.3778 111.32 53.3857 111.299 53.3857H108.984C108.973 53.386 108.963 53.3843 108.953 53.3806C108.943 53.377 108.933 53.3714 108.926 53.3644C108.918 53.3573 108.912 53.3488 108.907 53.3395C108.903 53.3301 108.9 53.3199 108.9 53.3096V47.7175C108.9 47.4804 108.905 47.2421 108.905 47.0083C108.905 46.8875 108.905 46.7712 108.9 46.6537C108.9 46.3148 108.877 45.9758 108.83 45.638C108.656 44.4231 108.141 43.5416 106.309 43.5651C105.779 43.5816 105.261 43.7164 104.794 43.9589C104.251 44.2632 103.649 44.686 103.31 45.2755C103.364 45.6642 103.392 46.0558 103.393 46.4479V46.4602C103.393 46.5251 103.398 46.59 103.398 46.6504V53.4696C103.397 53.4902 103.388 53.5097 103.373 53.5239C103.357 53.5382 103.336 53.546 103.315 53.5457H101.056C101.034 53.546 101.014 53.5382 100.998 53.5239C100.983 53.5097 100.974 53.4902 100.973 53.4696V47.7108C100.973 46.4412 101.043 45.1189 100.389 44.3001C99.9939 43.809 99.4323 43.5786 98.3357 43.5786C97.888 43.5786 97.3043 43.7307 96.8566 43.9365C96.5496 44.0741 96.2635 44.2475 96.0054 44.4533C95.6367 44.7666 95.3681 45.1704 95.3681 45.6302V53.313C95.3675 53.3334 95.3587 53.3527 95.3435 53.3669C95.3283 53.3811 95.3079 53.3891 95.2867 53.3891H92.9808C92.9596 53.3891 92.9393 53.3811 92.9241 53.3669C92.9089 53.3527 92.9 53.3334 92.8994 53.313V41.9789C92.9 41.9585 92.9089 41.9392 92.9241 41.925C92.9393 41.9108 92.9596 41.9028 92.9808 41.9028H93.9518C94.3448 41.9028 94.6902 42.14 94.8007 42.4868L94.9472 42.9454C94.9472 42.9767 94.9681 43.0036 94.9983 43.0148C95.0297 43.026 95.0646 43.0192 95.0879 42.9991C96.1147 42.0673 97.5845 41.6232 99.0102 41.6232C100.489 41.6232 101.446 42.0516 102.068 42.7206L102.003 42.64C102.194 42.8481 102.36 43.0729 102.499 43.3123C102.505 43.324 102.515 43.3339 102.526 43.3413C102.538 43.3486 102.551 43.3532 102.565 43.3545C102.579 43.3558 102.592 43.3539 102.605 43.3489C102.618 43.3439 102.629 43.3359 102.638 43.3258C103.574 42.2451 105.422 41.6243 106.909 41.6243C110.298 41.6243 111.363 43.8414 111.363 46.0094L111.354 46.0139H111.355ZM149.231 53.4047H146.715C146.702 53.4047 146.689 53.4019 146.678 53.3965C146.666 53.3911 146.656 53.3832 146.648 53.3734C145.7 52.163 144.995 50.9929 144.683 50.6238L144.626 50.5567C144.109 49.9392 143.045 48.6393 141.584 48.3943C141.571 48.3924 141.558 48.3935 141.545 48.3973C141.533 48.4012 141.522 48.4079 141.512 48.4167L140.436 49.4839C140.429 49.4907 140.423 49.4989 140.419 49.5079C140.415 49.517 140.413 49.5267 140.413 49.5365V53.3085C140.412 53.3289 140.403 53.3481 140.388 53.3621C140.372 53.3761 140.352 53.3838 140.331 53.3835H137.989C137.968 53.3835 137.948 53.3757 137.932 53.3617C137.917 53.3478 137.908 53.3287 137.907 53.3085V37.4887C137.908 37.4683 137.917 37.4489 137.932 37.4347C137.947 37.4205 137.967 37.4126 137.989 37.4126H140.331C140.377 37.4126 140.413 37.4462 140.413 37.4887V46.5989C140.414 46.6291 140.434 46.6548 140.464 46.666C140.495 46.6772 140.528 46.6727 140.553 46.6526L145.704 41.6847C145.72 41.6704 145.741 41.6624 145.762 41.6623H148.525C148.558 41.6634 148.586 41.6813 148.598 41.7093C148.604 41.7227 148.606 41.7374 148.604 41.7518C148.601 41.7661 148.594 41.7794 148.583 41.7899L143.321 46.8349C143.313 46.8435 143.306 46.8539 143.303 46.8654C143.299 46.8769 143.298 46.8891 143.301 46.9009C143.305 46.9233 143.321 46.9446 143.345 46.9546C144.861 47.6247 145.913 48.8787 146.403 49.4615L146.458 49.5275C146.876 50.0242 148.272 51.974 149.303 53.2918C149.31 53.3031 149.314 53.316 149.314 53.3292C149.314 53.3424 149.31 53.3554 149.303 53.3667C149.296 53.3781 149.286 53.3876 149.273 53.3943C149.261 53.4009 149.247 53.4045 149.233 53.4047H149.231Z" fill="#11293B"/>
<path d="M88.6783 39.9865C89.5254 39.9865 90.2121 39.3554 90.2121 38.577C90.2121 37.7985 89.5254 37.1675 88.6783 37.1675C87.8312 37.1675 87.1445 37.7985 87.1445 38.577C87.1445 39.3554 87.8312 39.9865 88.6783 39.9865Z" fill="#11293B"/>
<path d="M129.368 41.3321C125.708 41.3321 123.312 43.5727 123.312 47.3951C123.312 51.2321 125.719 53.4593 129.368 53.4593C133.015 53.4593 135.421 51.231 135.421 47.3962C135.421 43.5794 133.006 41.3321 129.368 41.3321V41.3321ZM129.368 51.5598C126.895 51.5598 125.709 50.0016 125.709 47.281C125.709 44.5761 126.895 43.2293 129.368 43.2293C131.84 43.2293 133.018 44.688 133.018 47.3929C133.018 50.0989 131.832 51.5598 129.368 51.5598V51.5598ZM156.497 51.7109C155.173 51.882 153.858 51.3529 153.097 50.3439C152.69 49.8405 152.475 49.2565 152.329 48.4903C152.328 48.4805 152.328 48.4704 152.331 48.4608C152.333 48.4512 152.338 48.4422 152.344 48.4343C152.357 48.4181 152.377 48.4073 152.398 48.4041L159.082 47.5372C160.914 47.2889 161.681 45.7664 160.989 44.2976C160.358 43.0721 159.267 42.1221 157.938 41.6386C156.124 40.9629 153.683 41.3578 152.381 42.3545C150.645 43.6857 150.052 45.2865 149.96 46.9879C149.949 47.1781 149.944 47.3683 149.944 47.5584C149.944 47.9522 149.979 48.3449 150.051 48.733C150.509 51.2835 152.457 53.626 155.72 53.6372C159.413 53.6483 161.157 51.5856 161.456 50.0396C161.458 50.028 161.457 50.0161 161.453 50.005C161.449 49.9939 161.442 49.9839 161.433 49.9758C161.424 49.9673 161.413 49.9609 161.401 49.957C161.389 49.9531 161.376 49.9519 161.363 49.9535L159.061 50.2812C159.049 50.2834 159.038 50.2879 159.028 50.2944C159.018 50.301 159.009 50.3094 159.003 50.3193C158.37 51.1638 157.634 51.5498 156.497 51.7109V51.7109ZM153.043 44.4799C153.363 44.1034 153.761 43.7945 154.21 43.5724C154.66 43.3502 155.153 43.2197 155.657 43.189C156.698 43.1085 157.541 43.2438 158.281 43.9161C158.546 44.1555 158.77 44.4307 158.948 44.7305C159.216 45.1735 158.932 45.8178 158.326 45.8973L152.237 46.6825C152.225 46.6844 152.212 46.6835 152.2 46.68C152.188 46.6766 152.177 46.6705 152.168 46.6624C152.159 46.6546 152.152 46.6449 152.148 46.6343C152.144 46.6236 152.143 46.6122 152.144 46.6009C152.249 45.7351 152.53 45.0974 153.043 44.4799V44.4799ZM174.372 46.2273V53.3072C174.371 53.3275 174.363 53.3469 174.347 53.3611C174.332 53.3753 174.312 53.3832 174.291 53.3832H171.995C171.984 53.3835 171.974 53.3818 171.964 53.3781C171.954 53.3745 171.945 53.369 171.937 53.3619C171.929 53.3548 171.923 53.3464 171.919 53.337C171.914 53.3276 171.912 53.3174 171.911 53.3072V47.422C171.911 47.422 171.941 46.4286 171.853 45.5024C171.791 44.8513 171.556 44.2204 171.016 43.8099C170.249 43.2237 169.162 43.3535 169.162 43.3535C167.815 43.4877 166.653 44.2652 165.927 45.0493L165.886 45.0952L165.927 45.0784V53.3049C165.927 53.3255 165.918 53.345 165.902 53.3592C165.887 53.3735 165.866 53.3813 165.845 53.381H163.542C163.532 53.3813 163.521 53.3796 163.511 53.3759C163.501 53.3722 163.492 53.3667 163.484 53.3596C163.476 53.3526 163.47 53.3441 163.466 53.3347C163.461 53.3253 163.459 53.3152 163.459 53.3049V41.7527C163.459 41.7321 163.468 41.7126 163.484 41.6984C163.499 41.6841 163.52 41.6763 163.541 41.6766H165.431C165.477 41.6766 165.515 41.7102 165.515 41.7527V42.8848C165.515 42.915 165.536 42.9407 165.567 42.9519C165.597 42.9631 165.631 42.9575 165.654 42.9362C166.63 41.9619 168.103 41.3757 169.647 41.3757C170.927 41.3779 174.371 41.4272 174.371 46.2273H174.372Z" fill="#11293B"/>
</g>
<defs>
<linearGradient id="paint0_linear_2495_14794" x1="75.8008" y1="36.572" x2="58.6679" y2="61.7812" gradientUnits="userSpaceOnUse">
<stop stop-color="#11C4D1"/>
<stop offset="1" stop-color="#0062AD"/>
</linearGradient>
<clipPath id="clip0_2495_14794">
<rect width="126.75" height="20.1356" fill="white" transform="translate(48.6992 35.4351)"/>
</clipPath>
</defs>
</svg>
