<svg width="223" height="89" viewBox="0 0 223 89" fill="none" xmlns="http://www.w3.org/2000/svg">
<rect x="0.699219" y="0.811035" width="222" height="88" fill="#F9FBFC"/>
<g clip-path="url(#clip0_2495_14827)">
<path d="M81.4 33.4C81.9 33.9 82.1 34.5 82.1 35.2C82.1 36.7 80.9 37.9 79.4 37.9C78.1 37.9 77.1 37 76.8 35.9V35.8C76.8 35.7 76.8 35.5 76.8 35.4C76.2 32.7 74.1 22 61.5 22C61.5 22 64.1 24.5 64.1 29C64.1 31 63.7 32.4 63.3 33.5C63.1 34.1 62.8 34.5 62.6 34.9C62.6 34.9 62.6 34.9 62.5 34.9C62.4 35.1 62.3 35.2 62.2 35.4C62.1 35.6 62 35.7 61.9 35.7C61.9 35.7 61.8 35.7 61.8 35.8C61.7 35.9 61.6 36 61.4 36.1C61 36.4 60.6 36.5 60.1 36.6C60 36.6 59.8 36.6 59.7 36.6C59.2 36.6 58.8 36.5 58.3 36.3C57.2 35.8 56.4 34.6 56.4 33.3C56.4 32.2 57 31 57.9 30.3C55.1 32 48 37.7 48 47.4C48 58 56.3 61.2 61 61.9C55.5 61 51.3 56.3 51.3 50.6C51.3 46.2 53.8 42.4 57.4 40.5C57.6 40.4 57.7 40.3 57.9 40.3C58.6 42.4 60.5 43.9 62.8 43.9C65.1 43.9 67 42.4 67.7 40.4C67.9 39.9 68 39.3 68 38.8C68 36.8 66.9 35.1 65.2 34.2C65.7 34.1 66.3 34.1 66.8 34.1C71.5 34.1 75.4 37.3 76.5 41.6C76.7 42.4 76.8 43.2 76.8 44.1C76.8 44.9 77.5 45.6 78.3 45.6C79.1 45.6 79.8 44.9 79.8 44.1C79.8 43.9 79.8 43.7 79.7 43.5C82 45.4 83.4 48.3 83.4 51.5C83.4 56.6 79.8 60.8 75.1 61.8C75.8 61.8 76.2 61.8 76.3 61.8C76.9 61.8 87.6 59.4 87.6 47.8C87.4 40.7 84.1 36.1 81.4 33.4Z" fill="#00CB6A"/>
<path d="M77.8 56.7001V51.3001C77.8 49.8001 77.1 48.5001 76 47.6001C75.3 47.0001 74.4 46.7001 73.4 46.6001C73.3 46.6001 73.2 46.6001 73.1 46.6001H62.1C60.4 46.6001 58.8 47.6001 58.1 49.0001C57.7 49.7001 57.5 50.5001 57.5 51.3001V56.7001C57.5 59.3001 59.6 61.4001 62.2 61.4001H70C70.1 61.4001 70.1 61.4001 70.2 61.5001V61.4001C70.2 60.9001 70.2 60.4001 69.6 59.7001C69.4 59.5001 69.1 59.2001 68.8 58.9001L70.2 56.7001C70.2 56.7001 70.9 57.1001 71.5 57.9001C72.2 58.7001 72.8 59.9001 72.8 61.4001H73.1C75.8 61.4001 77.8 59.3001 77.8 56.7001ZM62.1 54.5001C60.9 54.5001 60 53.5001 60 52.4001C60 51.3001 61 50.3001 62.1 50.3001C63.3 50.3001 64.2 51.3001 64.2 52.4001C64.2 53.5001 63.3 54.5001 62.1 54.5001ZM73.1 54.5001C71.9 54.5001 71 53.5001 71 52.4001C71 51.3001 72 50.3001 73.1 50.3001C74.2 50.3001 75.2 51.3001 75.2 52.4001C75.2 53.5001 74.3 54.5001 73.1 54.5001Z" fill="#00CB6A"/>
<path d="M173.9 43.9998C174.2 42.0998 173.4 40.3998 172.1 39.7998C170.5 39.0998 168.5 39.4998 167.2 40.8998C166.7 41.4998 166.2 42.0998 165.5 43.0998C165.7 41.8998 165.8 40.9998 165.9 39.9998C164.6 39.9998 163.4 39.9998 162.1 39.9998C161.1 45.0998 159.2 55.2998 159.2 55.2998H163.2C163.2 55.2998 163.3 55.0998 163.4 53.6998C163.7 51.5998 164.1 49.3998 164.7 47.2998C165.1 46.0998 165.8 44.7998 166.6 43.7998C167.1 43.1998 168.4 42.5998 169.2 42.9998C170.2 43.4998 170.1 44.5998 170 45.2998C169.7 47.4998 169.2 49.4998 168.8 51.5998C168.4 53.9998 169.1 55.0998 171.5 55.0998C172.1 55.0998 172.8 55.0998 173.4 55.0998C173.6 53.9998 173.8 53.0998 174 51.9998C172.5 52.0998 172.7 51.8998 172.7 51.8998C172.7 51.8998 173.6 46.1998 173.9 43.9998Z" fill="#1A1A1A"/>
<path d="M126.3 39.7997C123.4 38.7997 120.2 39.8997 118.4 42.5997C117 44.5997 116.4 46.8997 116.5 49.3997C116.5 52.3997 117.8 54.5997 120.2 55.2997C122.9 56.1997 125.9 55.2997 127.7 53.0997C129.3 51.0997 130 48.6997 130 46.0997C130 42.7997 128.7 40.5997 126.3 39.7997ZM126.1 45.6997C125.9 47.4997 125.6 48.9997 125.1 50.3997C124.5 51.8997 123.3 52.4997 122.1 52.1997C120.5 51.7997 120.4 50.5997 120.5 49.1997C120.7 47.2997 121.1 45.5997 121.7 44.2997C122.3 42.9997 123.7 42.2997 125 42.8997C125.8 43.2997 126.2 44.0997 126.1 45.6997Z" fill="#1A1A1A"/>
<path d="M156.7 48.0997C158.4 47.2997 159.2 45.5997 159.1 43.7997C159 42.0997 158.2 40.8997 156.7 40.1997C155.5 39.6997 154 39.5997 152.8 39.7997C148 40.3997 144.9 45.6997 145.9 50.8997C146.3 52.6997 147 54.1997 148.7 54.9997C152 56.6997 156.1 55.4997 158.2 52.1997C157.5 51.5997 156.8 50.9997 156 50.2997C154.6 51.8997 152.8 53.1997 150.7 52.0997C150 51.6997 149.8 50.2997 149.8 48.9997C152.7 49.1997 154.6 48.9997 156.7 48.0997ZM153.1 42.7997C154.3 42.6997 154.8 42.9997 155.2 43.6997C155.8 44.8997 154.7 45.7997 154.1 46.0997C153.2 46.5997 152.6 46.6997 150.2 46.6997C150.2 44.3997 151.7 42.8997 153.1 42.7997Z" fill="#1A1A1A"/>
<path d="M98.0998 39.7998C97.2998 43.7998 96.2998 48.4998 95.5998 52.4998C95.3998 53.6998 96.0998 54.6998 96.6998 54.8998C97.9998 55.3998 99.3998 55.3998 100.6 55.1998C100.7 54.2998 101.1 52.3998 101.1 52.0998C100.7 52.0998 100.2 52.0998 99.3998 52.0998C100.1 48.0998 101.1 43.8998 101.9 39.7998C100.7 39.7998 99.1998 39.7998 98.0998 39.7998Z" fill="#1A1A1A"/>
<path d="M101.1 33.2998C99.3998 33.2998 98.2998 34.5998 98.2998 36.3998C98.2998 37.6998 99.0998 38.0998 100.3 37.9998C102.1 37.9998 103.1 36.8998 103.2 34.9998C103.2 33.5998 102.2 33.2998 101.1 33.2998Z" fill="#1A1A1A"/>
<path d="M119.8 34.5996H105.2L104.5 38.2996H109.7L106.4 55.2996H110.7L113.7 38.2996H119L119.8 34.5996Z" fill="#1A1A1A"/>
<path d="M140.8 45.8999L147 39.7999H142.3L136.5 46.3999L139.1 33.3999H135L130.8 55.1999H134.7L135.3 51.3999L137.9 48.7999C138.3 50.0999 139.1 52.6999 139.4 53.4999C139.8 54.4999 140.5 55.1999 141.7 55.1999C142.9 55.1999 143.8 54.9999 143.8 54.9999L144.5 51.9999C144.5 51.9999 143.6 52.0999 142.8 52.0999L140.8 45.8999Z" fill="#1A1A1A"/>
</g>
<defs>
<clipPath id="clip0_2495_14827">
<rect width="126" height="39.9" fill="white" transform="translate(48 22)"/>
</clipPath>
</defs>
</svg>
