<svg width="223" height="89" viewBox="0 0 223 89" fill="none" xmlns="http://www.w3.org/2000/svg">
<rect x="0.472656" y="0.875977" width="222" height="88" fill="#F9FBFC"/>
<path fill-rule="evenodd" clip-rule="evenodd" d="M49.4727 57.876C49.4727 53.4072 53.1382 49.751 57.6184 49.751H66.5786V57.876H49.4727ZM75.5389 49.751C75.5389 54.2197 71.8733 57.876 67.3932 57.876V49.751H75.5389ZM67.3932 40.8135C71.8733 40.8135 75.5389 44.4697 75.5389 48.9385H67.3932V40.8135ZM57.6184 40.8135V48.9385C53.1382 48.9385 49.4727 45.2822 49.4727 40.8135H57.6184ZM75.5389 31.876C75.5389 36.3447 71.8733 40.001 67.3932 40.001H58.4329V31.876H75.5389ZM57.6184 31.876V40.001H49.4727C49.4727 35.5322 53.1382 31.876 57.6184 31.876Z" fill="url(#paint0_linear_2495_15026)"/>
<path d="M89.2238 52.4326C92.4007 52.4326 94.6815 50.8076 94.6815 47.8826V47.8014C94.6815 45.2014 92.9709 44.1451 89.957 43.3326C87.4318 42.6826 86.7801 42.3576 86.7801 41.3826V41.3014C86.7801 40.5701 87.4318 40.0014 88.6536 40.0014C89.6311 40.0014 90.6901 40.3264 91.749 40.9764C91.9934 41.1389 92.2378 41.2201 92.5636 41.2201C93.3782 41.2201 94.1113 40.5701 94.1113 39.7576C94.1113 39.1076 93.7854 38.7014 93.3782 38.4576C92.0748 37.6451 90.4457 37.1576 88.6536 37.1576C85.6397 37.1576 83.4404 38.9451 83.4404 41.6264V41.7076C83.4404 44.6326 85.3954 45.4451 88.3278 46.2576C90.7715 46.9076 91.3417 47.3139 91.3417 48.1264V48.1264C91.3417 49.0201 90.5272 49.5076 89.2238 49.5076C87.7576 49.5076 86.5358 49.0201 85.3954 48.2076C85.151 48.0451 84.9066 47.8826 84.4993 47.8826C83.6848 47.8826 82.9517 48.5326 82.9517 49.3451C82.9517 49.8326 83.196 50.3201 83.6033 50.5639C85.3139 51.7826 87.2689 52.4326 89.2238 52.4326ZM106.004 52.3514C106.9 52.3514 107.633 51.6201 107.633 50.7264V44.8764C107.633 42.2764 106.248 40.6514 103.805 40.6514C102.175 40.6514 101.198 41.5451 100.465 42.4389V38.2139C100.465 37.3201 99.7318 36.5889 98.8358 36.5889C97.9397 36.5889 97.2066 37.3201 97.2066 38.2139V50.6451C97.2066 51.5389 97.9397 52.2701 98.8358 52.2701C99.7318 52.2701 100.465 51.5389 100.465 50.6451V45.7701C100.465 44.2264 101.279 43.4951 102.501 43.4951C103.723 43.4951 104.456 44.3076 104.456 45.7701V50.6451C104.375 51.6201 105.108 52.3514 106.004 52.3514ZM115.942 52.4326C119.444 52.4326 122.132 49.8326 122.132 46.5014C122.132 43.2514 119.526 40.6514 116.023 40.6514C112.521 40.6514 109.832 43.2514 109.832 46.5826V46.6639C109.832 49.8326 112.439 52.4326 115.942 52.4326ZM116.023 49.6701C114.231 49.6701 113.009 48.2076 113.009 46.5826V46.5014C113.009 44.7951 114.15 43.4139 115.942 43.4139C117.734 43.4139 118.956 44.8764 118.956 46.5014V46.5826C118.956 48.2889 117.815 49.6701 116.023 49.6701ZM128.405 52.4326C129.219 52.4326 129.871 52.0264 130.115 51.0514L131.907 45.3639L133.699 51.0514C134.025 51.9451 134.677 52.4326 135.41 52.4326H135.491C136.306 52.4326 136.958 52.0264 137.283 50.9701L140.134 42.8451C140.216 42.6826 140.216 42.4389 140.216 42.1951C140.216 41.3826 139.564 40.7326 138.75 40.7326C137.935 40.7326 137.446 41.3014 137.202 41.9514L135.41 47.7201L133.618 41.9514C133.374 41.2201 132.803 40.6514 131.989 40.6514H131.826C131.011 40.6514 130.441 41.1389 130.197 41.9514L128.405 47.6389L126.694 41.8701C126.45 41.1389 125.961 40.6514 125.146 40.6514C124.169 40.6514 123.599 41.3826 123.599 42.1139C123.599 42.3576 123.68 42.6826 123.762 42.9264L126.531 50.8889C126.857 51.8639 127.509 52.3514 128.323 52.3514H128.405V52.4326ZM155.937 52.3514C156.833 52.3514 157.566 51.6201 157.566 50.7264V38.9451C157.566 38.0514 156.833 37.3201 155.937 37.3201H155.611C154.96 37.3201 154.471 37.5639 154.145 38.1326L150.154 44.5514L146.244 38.1326C145.918 37.6451 145.429 37.3201 144.777 37.3201H144.452C143.556 37.3201 142.823 38.0514 142.823 38.9451V50.7264C142.823 51.6201 143.556 52.3514 144.452 52.3514C145.348 52.3514 146.081 51.6201 146.081 50.7264V43.4139L148.932 47.7201C149.258 48.2076 149.665 48.5326 150.317 48.5326C150.887 48.5326 151.294 48.2076 151.701 47.7201L154.552 43.3326V50.7264C154.308 51.5389 155.041 52.3514 155.937 52.3514ZM166.201 52.4326C167.83 52.4326 169.133 51.9451 170.111 51.0514C170.355 50.8076 170.518 50.5639 170.518 50.0764C170.518 49.3451 170.029 48.7764 169.296 48.7764C168.97 48.7764 168.726 48.8576 168.481 49.0201C167.83 49.5076 167.097 49.7514 166.201 49.7514C164.734 49.7514 163.757 49.0201 163.431 47.5576H169.785C170.599 47.5576 171.251 46.9076 171.251 46.0139C171.251 43.6576 169.54 40.5701 165.793 40.5701C162.454 40.5701 160.173 43.2514 160.173 46.5014V46.5826C160.254 50.0764 162.779 52.4326 166.201 52.4326ZM168.237 45.6076H163.35C163.594 44.1451 164.49 43.1701 165.793 43.1701C167.178 43.2514 168.074 44.2264 168.237 45.6076Z" fill="#25262B"/>
<defs>
<linearGradient id="paint0_linear_2495_15026" x1="71.2275" y1="31.6784" x2="54.1056" y2="57.7184" gradientUnits="userSpaceOnUse">
<stop stop-color="#23D3FF"/>
<stop offset="0.5412" stop-color="#DCBEDC"/>
<stop offset="1" stop-color="#FF1142"/>
</linearGradient>
</defs>
</svg>
