<svg width="223" height="89" viewBox="0 0 223 89" fill="none" xmlns="http://www.w3.org/2000/svg">
<rect x="0.699219" y="0.746094" width="222" height="88" fill="#F9FBFC"/>
<path d="M148.01 44.5598L144.2 44.5697L144.184 38.9602L147.994 38.9503L148.047 38.9506C149.612 38.9737 150.875 40.2155 150.879 41.7475C150.884 43.2965 149.599 44.5558 148.01 44.5598ZM147.986 35.9181L141.066 35.9362L141.116 54.1293L144.226 54.1211L144.208 47.6017L148.018 47.592C151.325 47.5834 153.998 44.9631 153.99 41.7395C153.981 38.5158 151.293 35.9095 147.986 35.9181ZM120.252 40.4676V41.5289H118.853V44.5611H120.252V54.1123H123.363V44.5611H126.317V41.5289H123.363V41.074L123.363 41.0267C123.389 39.8763 124.354 38.9515 125.54 38.9515H126.317V35.9193H124.918C122.341 35.9193 120.252 37.9557 120.252 40.4676ZM130.393 46.3802C130.938 45.3026 132.077 44.5611 133.393 44.5611C134.709 44.5611 135.848 45.3026 136.393 46.3802H130.393ZM133.393 41.5289C129.829 41.5289 126.939 44.3458 126.939 47.8205C126.939 51.2955 129.829 54.1123 133.393 54.1123C135.434 54.1123 137.254 53.189 138.436 51.7472L135.039 50.6689V50.6588C134.553 50.9271 133.991 51.0801 133.393 51.0801C132.14 51.0801 131.047 50.4077 130.475 49.4127L135.039 49.4124H139.638C139.774 48.9041 139.847 48.3705 139.847 47.8205C139.847 44.3458 136.957 41.5289 133.393 41.5289ZM97.6004 43.4664C94.8893 42.6667 94.1987 42.092 94.1987 41.0173C94.1987 40.0178 95.0682 39.2681 96.5517 39.2681C98.0635 39.2681 98.9905 39.9089 99.6271 40.888C99.8797 40.8112 100.986 40.4628 102.945 39.8428C101.743 37.3939 99.4929 35.9193 96.5517 35.9193C93.4826 35.9193 90.6692 37.8185 90.6692 41.1174C90.6692 44.4411 93.3289 45.5656 96.0658 46.3403C98.7256 47.0901 99.9277 47.5899 99.9277 48.8894C99.9277 49.8641 99.186 50.7385 97.0632 50.7385C95.2077 50.7385 94.0279 50.0088 93.3163 48.8242C92.4674 49.0272 91.3377 49.3486 89.9274 49.789C90.8994 52.388 93.3034 54.1123 96.9607 54.1123C100.772 54.1123 103.457 52.1132 103.457 48.8395C103.457 45.2657 100.439 44.3411 97.6004 43.4664ZM167.839 36.9682V54.1123H170.949V35.983L167.839 36.9682ZM160.064 51.0801C158.174 51.0801 156.642 49.5866 156.642 47.7456C156.642 45.903 158.174 44.4095 160.064 44.4095C161.953 44.4095 163.485 45.903 163.485 47.7456C163.485 49.5866 161.953 51.0801 160.064 51.0801ZM160.456 41.5374C160.367 41.5331 160.278 41.5302 160.189 41.5302C160.172 41.5302 160.155 41.5289 160.139 41.5289H160.136C156.577 41.5318 153.69 44.3455 153.687 47.8158V47.848C153.687 47.9362 153.69 48.0228 153.695 48.1098C153.755 49.4115 154.22 50.61 154.971 51.5885C155.155 51.8209 155.354 52.0448 155.576 52.2604C155.807 52.4858 156.047 52.6887 156.295 52.8735C157.369 53.6519 158.697 54.1123 160.137 54.1123C160.255 54.1123 160.373 54.1096 160.489 54.1027C160.524 54.1012 160.56 54.097 160.596 54.0956C160.673 54.0902 160.752 54.0844 160.83 54.0759C160.88 54.0718 160.929 54.0647 160.978 54.0579C161.042 54.0492 161.105 54.0424 161.169 54.0327C161.219 54.0241 161.268 54.0159 161.318 54.0059C161.383 53.9948 161.447 53.9822 161.512 53.9696C161.552 53.9596 161.594 53.9514 161.634 53.9417C161.714 53.9219 161.795 53.9025 161.874 53.8815C161.895 53.8758 161.915 53.8703 161.937 53.8647C162.269 53.7695 162.592 53.6478 162.906 53.4992V53.5063C163.116 53.4097 163.319 53.3019 163.515 53.1843V54.1123H166.595V41.5766L163.65 42.5398C162.722 41.9529 161.63 41.5919 160.456 41.5374ZM111.078 51.0801C109.188 51.0801 107.656 49.5866 107.656 47.7456C107.656 45.903 109.188 44.4095 111.078 44.4095C112.967 44.4095 114.498 45.903 114.498 47.7456C114.498 49.5866 112.967 51.0801 111.078 51.0801ZM111.47 41.5374C111.381 41.5331 111.292 41.5302 111.203 41.5302C111.186 41.5302 111.169 41.5289 111.153 41.5289H111.15C107.59 41.5318 104.704 44.3455 104.701 47.8158V47.848C104.701 47.9362 104.704 48.0228 104.708 48.1098C104.769 49.4115 105.234 50.61 105.985 51.5885C106.169 51.8209 106.368 52.0448 106.589 52.2604C106.821 52.4858 107.06 52.6887 107.309 52.8735C108.383 53.6519 109.711 54.1123 111.151 54.1123C111.269 54.1123 111.387 54.1096 111.503 54.1027C111.538 54.1012 111.574 54.097 111.609 54.0956C111.687 54.0902 111.766 54.0844 111.844 54.0759C111.894 54.0718 111.943 54.0647 111.991 54.0579C112.056 54.0492 112.119 54.0424 112.182 54.0327C112.233 54.0241 112.281 54.0159 112.332 54.0059C112.396 53.9948 112.461 53.9822 112.525 53.9696C112.566 53.9596 112.607 53.9514 112.648 53.9417C112.728 53.9219 112.808 53.9025 112.887 53.8815C112.909 53.8758 112.929 53.8703 112.951 53.8647C113.282 53.7695 113.605 53.6478 113.92 53.4992V53.5063C114.129 53.4097 114.333 53.3019 114.529 53.1843V54.1123H117.609V41.5766L114.664 42.5398C113.736 41.9529 112.644 41.5919 111.47 41.5374ZM78.2169 50.1474C78.2169 52.9179 73.5002 55.889 68.8255 57.6045L68.2917 57.8008V61.8982L69.3845 61.5299C72.3891 60.5246 82.1915 56.7338 82.1915 50.1474V47.7767H78.2169V50.1474ZM76.5355 35.2864L78.2169 35.7926V42.0004H76.5355V35.2864ZM72.5619 54.5007C75.271 53.1475 76.5355 51.5313 76.5355 51.5313V45.8757H82.1915V32.8147L72.5583 29.9082C72.5583 29.9082 72.5619 53.4204 72.5619 54.5007ZM52.4492 45.8757H57.8764V52.7248C56.9119 51.7355 56.4238 50.7746 56.4238 49.8601V47.7767H52.4492V49.8601C52.4492 54.2797 56.9085 57.445 60.6494 59.3222L61.8515 59.9247V42.0004H56.4238V35.8114L61.8515 34.1685V30.0073L52.4492 32.8367V45.8757ZM71.3518 42.0004H67.084V32.5944L67.346 32.5152L71.3518 33.7236V29.5431L67.346 28.3389L63.1089 29.6136V60.2599L63.5926 60.4752C64.6222 60.9305 65.4545 61.2495 65.9711 61.4367L67.084 61.8409V45.8757H71.3518V42.0004Z" fill="#3F37FF"/>
</svg>
